<svg width="38" height="38" viewBox="0 0 38 38" fill="none" xmlns="http://www.w3.org/2000/svg">
<circle cx="20.5" cy="25.5" r="12.5" fill="url(#paint0_linear_12_423)" fill-opacity="0.1"/>
<path d="M6.33272 15H31.666M16.3327 7L13.666 15L18.9994 30.3333L24.3327 15L21.666 7M19.8188 30.0167L31.7637 15.6829C31.9661 15.4399 32.0673 15.3185 32.106 15.1829C32.1401 15.0633 32.1401 14.9367 32.106 14.8171C32.0673 14.6815 31.9661 14.5601 31.7637 14.3171L25.9859 7.3838C25.8683 7.24273 25.8095 7.17219 25.7375 7.12148C25.6736 7.07654 25.6024 7.04318 25.527 7.02289C25.4419 7 25.3501 7 25.1664 7H12.8323C12.6487 7 12.5569 7 12.4718 7.02289C12.3964 7.04318 12.3251 7.07654 12.2613 7.12148C12.1892 7.17219 12.1304 7.24273 12.0129 7.3838L6.2351 14.3171C6.03266 14.5601 5.93144 14.6815 5.89276 14.8171C5.85866 14.9366 5.85866 15.0633 5.89276 15.1829C5.93144 15.3185 6.03266 15.4399 6.2351 15.6829L18.1799 30.0167C18.4614 30.3544 18.6021 30.5232 18.7705 30.5848C18.9183 30.6388 19.0805 30.6388 19.2282 30.5848C19.3967 30.5232 19.5374 30.3544 19.8188 30.0167Z" stroke="#234ED9" stroke-width="2.66667" stroke-linecap="round" stroke-linejoin="round"/>
<defs>
<linearGradient id="paint0_linear_12_423" x1="25.7997" y1="23.7871" x2="17.2264" y2="30.9715" gradientUnits="userSpaceOnUse">
<stop stop-color="#288DF8"/>
<stop offset="1" stop-color="#289EFC"/>
</linearGradient>
</defs>
</svg>
