<svg width="42" height="42" viewBox="0 0 42 42" fill="none" xmlns="http://www.w3.org/2000/svg">
<circle cx="24.5" cy="29.5" r="12.5" fill="#01B7AD" fill-opacity="0.15"/>
<path d="M17.12 17.0001C17.4334 16.109 18.0522 15.3576 18.8666 14.8789C19.681 14.4003 20.6385 14.2253 21.5695 14.385C22.5006 14.5447 23.345 15.0288 23.9534 15.7515C24.5617 16.4741 24.8947 17.3888 24.8933 18.3334C24.8933 21.0001 20.8933 22.3334 20.8933 22.3334M21 27.6667H21.0133M34.3333 21.0001C34.3333 28.3639 28.3638 34.3334 21 34.3334C13.6362 34.3334 7.66663 28.3639 7.66663 21.0001C7.66663 13.6363 13.6362 7.66675 21 7.66675C28.3638 7.66675 34.3333 13.6363 34.3333 21.0001Z" stroke="#234ED9" stroke-width="2.66667" stroke-linecap="round" stroke-linejoin="round"/>
</svg>
