<svg width="25" height="24" viewBox="0 0 25 24" fill="none" xmlns="http://www.w3.org/2000/svg">
<path d="M7.81587 2.00049H16.2159C19.4159 2.00049 22.0159 4.60049 22.0159 7.80049V16.2005C22.0159 17.7387 21.4048 19.214 20.3171 20.3017C19.2294 21.3894 17.7541 22.0005 16.2159 22.0005H7.81587C4.61587 22.0005 2.01587 19.4005 2.01587 16.2005V7.80049C2.01587 6.26223 2.62694 4.78698 3.71465 3.69927C4.80236 2.61156 6.27761 2.00049 7.81587 2.00049M7.61587 4.00049C6.66109 4.00049 5.74542 4.37977 5.07029 5.0549C4.39515 5.73004 4.01587 6.64571 4.01587 7.60049V16.4005C4.01587 18.3905 5.62587 20.0005 7.61587 20.0005H16.4159C17.3706 20.0005 18.2863 19.6212 18.9615 18.9461C19.6366 18.2709 20.0159 17.3553 20.0159 16.4005V7.60049C20.0159 5.61049 18.4059 4.00049 16.4159 4.00049H7.61587ZM17.2659 5.50049C17.5974 5.50049 17.9153 5.63218 18.1498 5.86661C18.3842 6.10103 18.5159 6.41897 18.5159 6.75049C18.5159 7.08201 18.3842 7.39995 18.1498 7.63437C17.9153 7.86879 17.5974 8.00049 17.2659 8.00049C16.9344 8.00049 16.6164 7.86879 16.382 7.63437C16.1476 7.39995 16.0159 7.08201 16.0159 6.75049C16.0159 6.41897 16.1476 6.10103 16.382 5.86661C16.6164 5.63218 16.9344 5.50049 17.2659 5.50049ZM12.0159 7.00049C13.342 7.00049 14.6137 7.52727 15.5514 8.46496C16.4891 9.40264 17.0159 10.6744 17.0159 12.0005C17.0159 13.3266 16.4891 14.5983 15.5514 15.536C14.6137 16.4737 13.342 17.0005 12.0159 17.0005C10.6898 17.0005 9.41802 16.4737 8.48034 15.536C7.54265 14.5983 7.01587 13.3266 7.01587 12.0005C7.01587 10.6744 7.54265 9.40264 8.48034 8.46496C9.41802 7.52727 10.6898 7.00049 12.0159 7.00049M12.0159 9.00049C11.2202 9.00049 10.4572 9.31656 9.89455 9.87917C9.33194 10.4418 9.01587 11.2048 9.01587 12.0005C9.01587 12.7961 9.33194 13.5592 9.89455 14.1218C10.4572 14.6844 11.2202 15.0005 12.0159 15.0005C12.8115 15.0005 13.5746 14.6844 14.1372 14.1218C14.6998 13.5592 15.0159 12.7961 15.0159 12.0005C15.0159 11.2048 14.6998 10.4418 14.1372 9.87917C13.5746 9.31656 12.8115 9.00049 12.0159 9.00049Z" fill="url(#paint0_linear_12_878)"/>
<defs>
<linearGradient id="paint0_linear_12_878" x1="16.2556" y1="10.6301" x2="9.397" y2="16.3777" gradientUnits="userSpaceOnUse">
<stop stop-color="#288DF8"/>
<stop offset="1" stop-color="#289EFC"/>
</linearGradient>
</defs>
</svg>
