<svg width="34" height="34" viewBox="0 0 34 34" fill="none" xmlns="http://www.w3.org/2000/svg">
<path d="M21.5 27C28.4036 27 34 21.4036 34 14.5C34 7.59644 28.4036 2 21.5 2C14.5964 2 9 7.59644 9 14.5C9 21.4036 14.5964 27 21.5 27Z" fill="url(#paint0_linear_12_252)" fill-opacity="0.1"/>
<path d="M13.3334 18.3335C13.906 19.099 14.6365 19.7324 15.4754 20.1907C16.3143 20.649 17.242 20.9216 18.1956 20.9899C19.1491 21.0582 20.1061 20.9206 21.0018 20.5865C21.8975 20.2524 22.7108 19.7295 23.3867 19.0535L27.3867 15.0535C28.6011 13.7961 29.273 12.1121 29.2578 10.3641C29.2427 8.61613 28.5415 6.94405 27.3055 5.70799C26.0694 4.47194 24.3973 3.77081 22.6494 3.75562C20.9014 3.74043 19.2174 4.4124 17.96 5.62678L15.6667 7.90678M18.6667 15.6668C18.0941 14.9013 17.3635 14.2679 16.5246 13.8095C15.6857 13.3512 14.758 13.0786 13.8045 13.0103C12.851 12.942 11.8939 13.0796 10.9982 13.4137C10.1025 13.7479 9.2892 14.2707 8.61336 14.9468L4.61336 18.9468C3.39897 20.2041 2.72701 21.8881 2.7422 23.6361C2.75738 25.3841 3.45851 27.0562 4.69457 28.2922C5.93062 29.5283 7.6027 30.2294 9.35068 30.2446C11.0987 30.2598 12.7827 29.5878 14.04 28.3735L16.32 26.0935" stroke="#234ED9" stroke-width="3" stroke-linecap="round" stroke-linejoin="round"/>
<defs>
<linearGradient id="paint0_linear_12_252" x1="26.7997" y1="12.7871" x2="18.2264" y2="19.9715" gradientUnits="userSpaceOnUse">
<stop stop-color="#288DF8"/>
<stop offset="1" stop-color="#289EFC"/>
</linearGradient>
</defs>
</svg>
