<svg width="24" height="24" viewBox="0 0 24 24" fill="none" xmlns="http://www.w3.org/2000/svg">
<path fill-rule="evenodd" clip-rule="evenodd" d="M12.5143 8.79666V10.4933C12.8696 9.95213 13.3594 9.51243 13.9356 9.21729C14.5119 8.92216 15.1549 8.7817 15.8017 8.80966C19.2561 8.80966 20.0029 10.9693 20.0029 13.7787V19.4987H16.8035V14.4276C16.8035 13.2178 16.5596 11.6621 14.6759 11.6621C12.8492 11.6621 12.5373 12.9789 12.5373 14.3376V19.4987H9.3479V8.79666H12.5143ZM7.20529 6.10717C7.2049 6.42411 7.11095 6.73388 6.93522 6.99765C6.7595 7.26142 6.50981 7.46744 6.21748 7.58989C5.92526 7.71135 5.60351 7.74312 5.29318 7.68116C4.98285 7.6192 4.69798 7.46631 4.4748 7.24195C4.25121 7.01745 4.09899 6.73186 4.03728 6.42107C3.97557 6.11029 4.00712 5.7882 4.12798 5.49531C4.24883 5.20241 4.45359 4.95179 4.7165 4.77495C4.97942 4.59812 5.28875 4.50297 5.60559 4.50146C5.81617 4.50146 6.02468 4.54304 6.21916 4.62381C6.41364 4.70457 6.59025 4.82294 6.73888 4.97213C6.8875 5.12131 7.00521 5.29837 7.08525 5.49314C7.16529 5.68792 7.20608 5.89659 7.20529 6.10717Z" fill="url(#paint0_linear_12_882)"/>
<path d="M7.20502 8.809H4.00562V19.498H7.20502V8.809Z" fill="url(#paint1_linear_12_882)"/>
<defs>
<linearGradient id="paint0_linear_12_882" x1="15.3955" y1="10.9725" x2="10.2047" y2="15.6125" gradientUnits="userSpaceOnUse">
<stop stop-color="#288DF8"/>
<stop offset="1" stop-color="#289EFC"/>
</linearGradient>
<linearGradient id="paint1_linear_12_882" x1="15.3955" y1="10.9725" x2="10.2047" y2="15.6125" gradientUnits="userSpaceOnUse">
<stop stop-color="#288DF8"/>
<stop offset="1" stop-color="#289EFC"/>
</linearGradient>
</defs>
</svg>
