<svg width="46" height="46" viewBox="0 0 46 46" fill="none" xmlns="http://www.w3.org/2000/svg">
<circle cx="33.5" cy="16.5" r="12.5" fill="url(#paint0_linear_12_645)" fill-opacity="0.1"/>
<path d="M25.6666 19H22.3333C21.2287 19 20.3333 19.8954 20.3333 21C20.3333 22.1045 21.2287 23 22.3333 23H23.6666C24.7712 23 25.6666 23.8954 25.6666 25C25.6666 26.1045 24.7712 27 23.6666 27H20.3333M23 17.6666V19M23 27V28.3333M31 23H31.0133M15 23H15.0133M9.66663 17.9333L9.66663 28.0666C9.66663 29.5601 9.66663 30.3068 9.95728 30.8773C10.2129 31.379 10.6209 31.787 11.1227 32.0426C11.6931 32.3333 12.4398 32.3333 13.9333 32.3333L32.0666 32.3333C33.5601 32.3333 34.3068 32.3333 34.8773 32.0426C35.379 31.787 35.787 31.379 36.0426 30.8773C36.3333 30.3068 36.3333 29.5601 36.3333 28.0666V17.9333C36.3333 16.4398 36.3333 15.6931 36.0426 15.1227C35.787 14.6209 35.379 14.2129 34.8773 13.9573C34.3068 13.6666 33.5601 13.6666 32.0666 13.6666L13.9333 13.6666C12.4398 13.6666 11.6931 13.6666 11.1227 13.9573C10.6209 14.2129 10.2129 14.6209 9.95728 15.1227C9.66663 15.6931 9.66663 16.4398 9.66663 17.9333ZM31.6666 23C31.6666 23.3681 31.3681 23.6666 31 23.6666C30.6318 23.6666 30.3333 23.3681 30.3333 23C30.3333 22.6318 30.6318 22.3333 31 22.3333C31.3681 22.3333 31.6666 22.6318 31.6666 23ZM15.6666 23C15.6666 23.3681 15.3681 23.6666 15 23.6666C14.6318 23.6666 14.3333 23.3681 14.3333 23C14.3333 22.6318 14.6318 22.3333 15 22.3333C15.3681 22.3333 15.6666 22.6318 15.6666 23Z" stroke="#234ED9" stroke-width="2.66667" stroke-linecap="round" stroke-linejoin="round"/>
<defs>
<linearGradient id="paint0_linear_12_645" x1="38.7997" y1="14.7871" x2="30.2264" y2="21.9715" gradientUnits="userSpaceOnUse">
<stop stop-color="#288DF8"/>
<stop offset="1" stop-color="#289EFC"/>
</linearGradient>
</defs>
</svg>
