<svg width="42" height="40" viewBox="0 0 42 40" fill="none" xmlns="http://www.w3.org/2000/svg">
<circle cx="29.5" cy="27.5" r="12.5" fill="url(#paint0_linear_12_296)" fill-opacity="0.1"/>
<path d="M32.3333 13.7039L21 20.0002M21 20.0002L9.66662 13.7039M21 20.0002L21 32.6669M23.6667 31.8521L22.036 32.758C21.6579 32.9681 21.4688 33.0731 21.2686 33.1143C21.0914 33.1508 20.9086 33.1508 20.7314 33.1143C20.5312 33.0731 20.3421 32.9681 19.964 32.758L10.0973 27.2766C9.69794 27.0547 9.49824 26.9437 9.35284 26.786C9.22421 26.6464 9.12686 26.4809 9.06731 26.3007C9 26.097 9 25.8685 9 25.4117V14.5889C9 14.132 9 13.9036 9.06731 13.6999C9.12686 13.5196 9.22421 13.3542 9.35284 13.2146C9.49825 13.0568 9.69793 12.9459 10.0973 12.724L19.964 7.24252C20.3421 7.03245 20.5312 6.9274 20.7314 6.88622C20.9086 6.84977 21.0914 6.84977 21.2686 6.88622C21.4688 6.9274 21.6579 7.03244 22.036 7.24252L31.9027 12.724C32.3021 12.9459 32.5018 13.0568 32.6472 13.2146C32.7758 13.3542 32.8731 13.5196 32.9327 13.6999C33 13.9036 33 14.132 33 14.5889L33 20.6669M15 10.0003L27 16.6669M26.3333 28.0003L29 30.6669L34.3333 25.3336" stroke="#2455DC" stroke-width="2.66667" stroke-linecap="round" stroke-linejoin="round"/>
<defs>
<linearGradient id="paint0_linear_12_296" x1="34.7997" y1="25.7871" x2="26.2264" y2="32.9715" gradientUnits="userSpaceOnUse">
<stop stop-color="#288DF8"/>
<stop offset="1" stop-color="#289EFC"/>
</linearGradient>
</defs>
</svg>
