<svg width="44" height="44" viewBox="0 0 44 44" fill="none" xmlns="http://www.w3.org/2000/svg">
<circle cx="12.5" cy="25.5" r="12.5" fill="url(#paint0_linear_12_724)" fill-opacity="0.1"/>
<path d="M16.6666 24.6667C16.6666 24.6667 18.6666 27.3334 22 27.3334C25.3333 27.3334 27.3333 24.6667 27.3333 24.6667M26 18.0001H26.0133M16.6666 18.0001H19.3333M35.3333 22.0001C35.3333 29.3639 29.3638 35.3334 22 35.3334C14.6362 35.3334 8.66663 29.3639 8.66663 22.0001C8.66663 14.6363 14.6362 8.66675 22 8.66675C29.3638 8.66675 35.3333 14.6363 35.3333 22.0001ZM26.6666 18.0001C26.6666 18.3683 26.3681 18.6667 26 18.6667C25.6318 18.6667 25.3333 18.3683 25.3333 18.0001C25.3333 17.6319 25.6318 17.3334 26 17.3334C26.3681 17.3334 26.6666 17.6319 26.6666 18.0001Z" stroke="#234ED9" stroke-width="2.66667" stroke-linecap="round" stroke-linejoin="round"/>
<defs>
<linearGradient id="paint0_linear_12_724" x1="17.7997" y1="23.7871" x2="9.22642" y2="30.9715" gradientUnits="userSpaceOnUse">
<stop stop-color="#288DF8"/>
<stop offset="1" stop-color="#289EFC"/>
</linearGradient>
</defs>
</svg>
