<svg width="24" height="24" viewBox="0 0 24 24" fill="none" xmlns="http://www.w3.org/2000/svg">
<path d="M12.0116 20.4993C13.8212 20.4993 15.5559 20.3203 17.1636 19.9924C19.1732 19.5825 20.177 19.3785 21.0929 18.2007C22.0097 17.022 22.0097 15.6692 22.0097 12.9637V11.0381C22.0097 8.33258 22.0097 6.97883 21.0929 5.80105C20.177 4.62327 19.1732 4.41831 17.1636 4.00938C15.4674 3.66941 13.7415 3.49959 12.0116 3.50248C10.2019 3.50248 8.46723 3.68144 6.85953 4.00938C4.8499 4.41931 3.84609 4.62327 2.93026 5.80105C2.01343 6.97983 2.01343 8.33258 2.01343 11.0381V12.9637C2.01343 15.6692 2.01343 17.023 2.93026 18.2007C3.84609 19.3785 4.8499 19.5835 6.85953 19.9924C8.46723 20.3203 10.2019 20.4993 12.0116 20.4993Z" stroke="url(#paint0_linear_12_880)" stroke-width="1.49972" stroke-linecap="round" stroke-linejoin="round"/>
<path d="M15.9732 12.3136C15.8252 12.9194 15.0353 13.3534 13.4566 14.2242C11.7389 15.171 10.8801 15.6439 10.1852 15.461C9.95366 15.4012 9.73732 15.2932 9.55035 15.144C9.01245 14.7091 9.01245 13.8063 9.01245 12.0006C9.01245 10.1949 9.01245 9.29211 9.55035 8.8572C9.73232 8.71022 9.95028 8.60124 10.1852 8.54025C10.8801 8.35729 11.7389 8.8302 13.4566 9.77702C15.0363 10.6469 15.8252 11.0818 15.9732 11.6877C16.0231 11.8936 16.0231 12.1076 15.9732 12.3136Z" stroke="url(#paint1_linear_12_880)" stroke-width="1.49972" stroke-linecap="round" stroke-linejoin="round"/>
<defs>
<linearGradient id="paint0_linear_12_880" x1="16.2505" y1="10.8363" x2="10.3311" y2="16.6721" gradientUnits="userSpaceOnUse">
<stop stop-color="#288DF8"/>
<stop offset="1" stop-color="#289EFC"/>
</linearGradient>
<linearGradient id="paint1_linear_12_880" x1="16.2505" y1="10.8363" x2="10.3311" y2="16.6721" gradientUnits="userSpaceOnUse">
<stop stop-color="#288DF8"/>
<stop offset="1" stop-color="#289EFC"/>
</linearGradient>
</defs>
</svg>
