<svg width="476" height="476" viewBox="0 0 476 476" fill="none" xmlns="http://www.w3.org/2000/svg">
<path d="M93.2764 119H430.223L390.583 327.25H123.007L93.2764 119Z" fill="url(#paint0_linear_21_1387)"/>
<path d="M33.8208 39.6689H59.7096C64.5858 39.6689 67.0238 39.6689 68.9858 40.5662C70.715 41.357 72.1801 42.6285 73.207 44.2296C74.372 46.0462 74.7169 48.4615 75.4064 53.2917L84.7875 119.002M84.7875 119.002L105.637 272.342C108.282 291.8 109.605 301.53 114.254 308.853C118.35 315.307 124.223 320.438 131.166 323.631C139.045 327.252 148.857 327.252 168.483 327.252H338.103C356.785 327.252 366.127 327.252 373.759 323.889C380.49 320.923 386.264 316.142 390.436 310.081C395.165 303.206 396.913 294.026 400.41 275.662L426.644 137.838C427.875 131.375 428.489 128.143 427.597 125.617C426.816 123.401 425.272 121.535 423.243 120.351C420.93 119.002 417.643 119.002 411.067 119.002H84.7875ZM192.384 416.502C192.384 427.456 183.51 436.336 172.564 436.336C161.617 436.336 152.743 427.456 152.743 416.502C152.743 405.548 161.617 396.669 172.564 396.669C183.51 396.669 192.384 405.548 192.384 416.502ZM350.948 416.502C350.948 427.456 342.073 436.336 331.126 436.336C320.181 436.336 311.306 427.456 311.306 416.502C311.306 405.548 320.181 396.669 331.126 396.669C342.073 396.669 350.948 405.548 350.948 416.502Z" stroke="url(#paint1_linear_21_1387)" stroke-width="27.72" stroke-linecap="round" stroke-linejoin="round"/>
<path d="M362.529 177.666L252.059 288.209C246.498 293.772 243.719 296.555 240.514 297.596C237.694 298.514 234.655 298.514 231.837 297.596C228.63 296.555 225.851 293.772 220.292 288.209L181.861 249.754C176.302 244.191 173.522 241.41 170.316 240.367C167.496 239.451 164.459 239.451 161.639 240.367C158.434 241.41 155.654 244.191 150.094 249.754L81.7407 318.151M362.529 177.666H264.253M362.529 177.666V276.005" stroke="white" stroke-width="19.6" stroke-linecap="round" stroke-linejoin="round"/>
<defs>
<linearGradient id="paint0_linear_21_1387" x1="261.749" y1="119" x2="261.749" y2="327.25" gradientUnits="userSpaceOnUse">
<stop stop-color="#288DF8"/>
<stop offset="1" stop-color="#289EFC"/>
</linearGradient>
<linearGradient id="paint1_linear_21_1387" x1="314.485" y1="210.825" x2="178.607" y2="323.983" gradientUnits="userSpaceOnUse">
<stop stop-color="#288DF8"/>
<stop offset="1" stop-color="#289EFC"/>
</linearGradient>
</defs>
</svg>
