<svg width="126" height="34" viewBox="0 0 126 34" fill="none" xmlns="http://www.w3.org/2000/svg">
<path d="M5.6626 8.5H29.7302L26.8988 23.375H7.78621L5.6626 8.5Z" fill="url(#paint0_linear_12_224)"/>
<path d="M1.41577 2.8335H3.26497C3.61327 2.8335 3.78742 2.8335 3.92756 2.89759C4.05107 2.95407 4.15572 3.04489 4.22907 3.15926C4.31228 3.28901 4.33692 3.46153 4.38617 3.80655L5.05625 8.50016M5.05625 8.50016L6.54547 19.453C6.73444 20.8429 6.82894 21.5379 7.161 22.0609C7.45361 22.5219 7.8731 22.8884 8.36899 23.1165C8.93176 23.3752 9.63267 23.3752 11.0345 23.3752H23.1502C24.4847 23.3752 25.1519 23.3752 25.6971 23.1349C26.1779 22.9231 26.5903 22.5815 26.8883 22.1486C27.2261 21.6576 27.351 21.0018 27.6007 19.6901L29.4746 9.84556C29.5625 9.38389 29.6064 9.15306 29.5427 8.97262C29.4869 8.81434 29.3766 8.68104 29.2316 8.59652C29.0664 8.50016 28.8317 8.50016 28.3619 8.50016H5.05625ZM12.7417 29.7502C12.7417 30.5326 12.1079 31.1668 11.326 31.1668C10.5441 31.1668 9.91024 30.5326 9.91024 29.7502C9.91024 28.9677 10.5441 28.3335 11.326 28.3335C12.1079 28.3335 12.7417 28.9677 12.7417 29.7502ZM24.0677 29.7502C24.0677 30.5326 23.4338 31.1668 22.6519 31.1668C21.8701 31.1668 21.2361 30.5326 21.2361 29.7502C21.2361 28.9677 21.8701 28.3335 22.6519 28.3335C23.4338 28.3335 24.0677 28.9677 24.0677 29.7502Z" stroke="url(#paint1_linear_12_224)" stroke-width="1.98034" stroke-linecap="round" stroke-linejoin="round"/>
<path d="M24.895 12.6904L17.0042 20.5863C16.607 20.9837 16.4085 21.1825 16.1796 21.2569C15.9781 21.3224 15.7611 21.3224 15.5598 21.2569C15.3307 21.1825 15.1322 20.9837 14.7351 20.5863L11.9901 17.8396C11.593 17.4422 11.3944 17.2436 11.1654 17.1691C10.964 17.1036 10.7471 17.1036 10.5457 17.1691C10.3167 17.2436 10.1181 17.4422 9.72098 17.8396L4.83862 22.7251M24.895 12.6904H17.8752M24.895 12.6904V19.7147" stroke="white" stroke-width="1.40274" stroke-linecap="round" stroke-linejoin="round"/>
<path d="M40.3958 19.1102C40.3958 17.8276 40.6475 16.6901 41.151 15.6978C41.6698 14.7053 42.364 13.9419 43.2337 13.4075C44.1187 12.8731 45.1029 12.6059 46.1862 12.6059C47.1322 12.6059 47.9562 12.7968 48.6581 13.1785C49.3752 13.5602 49.9474 14.0411 50.3747 14.6212V12.812H53.6017V25.5H50.3747V23.6448C49.9627 24.2403 49.3904 24.7365 48.6581 25.1335C47.9409 25.5153 47.1093 25.7061 46.1633 25.7061C45.0953 25.7061 44.1187 25.4313 43.2337 24.8816C42.364 24.3319 41.6698 23.5608 41.151 22.5685C40.6475 21.5608 40.3958 20.408 40.3958 19.1102ZM50.3747 19.156C50.3747 18.3773 50.2221 17.7131 49.9168 17.1635C49.6117 16.5985 49.1998 16.1711 48.6809 15.8809C48.1622 15.5755 47.6052 15.4229 47.0102 15.4229C46.4152 15.4229 45.8658 15.568 45.3623 15.858C44.8587 16.1481 44.4467 16.5757 44.1263 17.1406C43.8213 17.6902 43.6686 18.3468 43.6686 19.1102C43.6686 19.8735 43.8213 20.5455 44.1263 21.1256C44.4467 21.6906 44.8587 22.1256 45.3623 22.431C45.881 22.7365 46.4303 22.8891 47.0102 22.8891C47.6052 22.8891 48.1622 22.744 48.6809 22.454C49.1998 22.1486 49.6117 21.721 49.9168 21.1713C50.2221 20.6065 50.3747 19.9347 50.3747 19.156ZM59.9354 8.55218V25.5H56.7312V8.55218H59.9354ZM66.3055 8.55218V25.5H63.1012V8.55218H66.3055ZM71.3021 15.7435C71.6988 14.9037 72.3244 14.2091 73.179 13.6594C74.0487 13.0945 75.0786 12.812 76.2687 12.812C77.3978 12.812 78.4125 13.0792 79.3128 13.6136C80.2282 14.1327 80.9377 14.8809 81.4413 15.858C81.96 16.8199 82.2194 17.9422 82.2194 19.2247C82.2194 20.5072 81.96 21.6371 81.4413 22.6142C80.9377 23.5914 80.2282 24.3472 79.3128 24.8816C78.4125 25.416 77.3978 25.6831 76.2687 25.6831C75.0939 25.6831 74.0716 25.4083 73.2018 24.8586C72.3321 24.2938 71.6988 23.5914 71.3021 22.7516V31.4087H69.7229V12.9952H71.3021V15.7435ZM80.5944 19.2247C80.5944 18.1864 80.3884 17.2932 79.9765 16.5451C79.5798 15.7816 79.0305 15.2015 78.3285 14.8046C77.6266 14.4076 76.8333 14.2091 75.9483 14.2091C75.0939 14.2091 74.308 14.4153 73.5909 14.8274C72.889 15.2396 72.3321 15.8275 71.9201 16.591C71.5081 17.3543 71.3021 18.2398 71.3021 19.2477C71.3021 20.2553 71.5081 21.1409 71.9201 21.9043C72.3321 22.6678 72.889 23.2555 73.5909 23.6678C74.308 24.08 75.0939 24.2862 75.9483 24.2862C76.8333 24.2862 77.6266 24.0877 78.3285 23.6907C79.0305 23.2785 79.5798 22.6906 79.9765 21.9271C80.3884 21.1485 80.5944 20.2477 80.5944 19.2247ZM86.7696 15.2168C87.1205 14.4381 87.6545 13.835 88.3716 13.4075C89.104 12.98 89.9966 12.7662 91.0494 12.7662V14.4381H90.6145C89.4549 14.4381 88.5242 14.7512 87.8223 15.377C87.1205 16.0031 86.7696 17.049 86.7696 18.5147V25.5H85.1674V12.9952H86.7696V15.2168ZM94.2606 10.6363C93.9402 10.6363 93.6656 10.5218 93.4367 10.2928C93.2079 10.0637 93.0933 9.78126 93.0933 9.44537C93.0933 9.10946 93.2079 8.83463 93.4367 8.62087C93.6656 8.39185 93.9402 8.27734 94.2606 8.27734C94.581 8.27734 94.8556 8.39185 95.0846 8.62087C95.3135 8.83463 95.4279 9.10946 95.4279 9.44537C95.4279 9.78126 95.3135 10.0637 95.0846 10.2928C94.8556 10.5218 94.581 10.6363 94.2606 10.6363ZM95.0616 12.9952V25.5H93.4596V12.9952H95.0616ZM97.9572 19.2477C97.9572 17.9498 98.2167 16.8199 98.7354 15.858C99.2542 14.8809 99.9714 14.1327 100.887 13.6136C101.802 13.0792 102.848 12.812 104.022 12.812C105.564 12.812 106.83 13.1937 107.822 13.9571C108.829 14.7206 109.477 15.7588 109.767 17.0719H108.051C107.837 16.1711 107.372 15.4687 106.654 14.9648C105.953 14.4457 105.075 14.1862 104.022 14.1862C103.183 14.1862 102.428 14.377 101.757 14.7587C101.085 15.1405 100.551 15.7129 100.154 16.4764C99.773 17.2245 99.5823 18.1483 99.5823 19.2477C99.5823 20.347 99.773 21.2783 100.154 22.0417C100.551 22.8052 101.085 23.3777 101.757 23.7595C102.428 24.1411 103.183 24.3319 104.022 24.3319C105.075 24.3319 105.953 24.08 106.654 23.5761C107.372 23.0571 107.837 22.3394 108.051 21.4234H109.767C109.477 22.7059 108.829 23.7365 107.822 24.5151C106.815 25.2938 105.548 25.6831 104.022 25.6831C102.848 25.6831 101.802 25.4236 100.887 24.9045C99.9714 24.3702 99.2542 23.622 98.7354 22.6601C98.2167 21.6829 97.9572 20.5455 97.9572 19.2477ZM124.032 18.6063C124.032 19.156 124.017 19.5759 123.987 19.866H113.619C113.664 20.8126 113.893 21.6218 114.305 22.2936C114.717 22.9654 115.259 23.477 115.93 23.8282C116.602 24.1641 117.334 24.3319 118.127 24.3319C119.165 24.3319 120.035 24.08 120.737 23.5761C121.454 23.0724 121.927 22.3929 122.156 21.5378H123.849C123.544 22.7593 122.888 23.7595 121.881 24.5381C120.889 25.3015 119.638 25.6831 118.127 25.6831C116.953 25.6831 115.9 25.4236 114.969 24.9045C114.038 24.3702 113.306 23.622 112.772 22.6601C112.253 21.6829 111.994 20.5455 111.994 19.2477C111.994 17.9498 112.253 16.8123 112.772 15.8352C113.291 14.858 114.015 14.1098 114.946 13.5907C115.877 13.0716 116.937 12.812 118.127 12.812C119.318 12.812 120.355 13.0716 121.24 13.5907C122.14 14.1098 122.827 14.8122 123.3 15.6978C123.788 16.568 124.032 17.5376 124.032 18.6063ZM122.407 18.5606C122.423 17.6291 122.232 16.8352 121.835 16.1787C121.454 15.5221 120.927 15.026 120.256 14.69C119.585 14.3541 118.852 14.1862 118.059 14.1862C116.869 14.1862 115.854 14.5678 115.015 15.3313C114.176 16.0947 113.71 17.1711 113.619 18.5606H122.407Z" fill="#384257"/>
<defs>
<linearGradient id="paint0_linear_12_224" x1="17.6964" y1="8.5" x2="17.6964" y2="23.375" gradientUnits="userSpaceOnUse">
<stop stop-color="#288DF8"/>
<stop offset="1" stop-color="#289EFC"/>
</linearGradient>
<linearGradient id="paint1_linear_12_224" x1="21.4632" y1="15.0589" x2="11.7577" y2="23.1416" gradientUnits="userSpaceOnUse">
<stop stop-color="#288DF8"/>
<stop offset="1" stop-color="#289EFC"/>
</linearGradient>
</defs>
</svg>
