<svg width="156" height="43" viewBox="0 0 156 43" fill="none" xmlns="http://www.w3.org/2000/svg">
<path d="M36.4109 11.7417L33.2009 28.5962H10.7527L8.34448 11.7417H36.4109Z" fill="#F4F9FF" stroke="white" stroke-width="1.77415"/>
<path d="M29.2367 29.484H14.0538C12.2971 29.484 11.4187 29.484 10.7135 29.1599C10.092 28.8744 9.56635 28.4154 9.19967 27.8382C8.78355 27.183 8.66513 26.3127 8.42831 24.572L6.5621 10.8554H35.7678C36.3564 10.8554 36.6506 10.8554 36.8577 10.9761C37.0393 11.0819 37.1774 11.2488 37.2474 11.4471C37.3272 11.673 37.2722 11.9621 37.1621 12.5403L34.8137 24.869C34.5008 26.5117 34.3444 27.333 33.921 27.9479C33.5477 28.4901 33.0308 28.9178 32.4284 29.1831C31.7451 29.484 30.909 29.484 29.2367 29.484Z" fill="#F4F9FF"/>
<path d="M14.419 39.2418C15.3989 39.2418 16.1932 38.4475 16.1932 37.4676C16.1932 36.4878 15.3989 35.6935 14.419 35.6935C13.4392 35.6935 12.6449 36.4878 12.6449 37.4676C12.6449 38.4475 13.4392 39.2418 14.419 39.2418Z" fill="#F4F9FF"/>
<path d="M28.6122 39.2418C29.5921 39.2418 30.3864 38.4475 30.3864 37.4676C30.3864 36.4878 29.5921 35.6935 28.6122 35.6935C27.6324 35.6935 26.8381 36.4878 26.8381 37.4676C26.8381 38.4475 27.6324 39.2418 28.6122 39.2418Z" fill="#F4F9FF"/>
<path d="M2 3.75879H4.31733C4.7538 3.75879 4.97204 3.75879 5.14767 3.83905C5.30243 3.90978 5.43359 4.02354 5.5255 4.16675C5.62979 4.32926 5.66066 4.5453 5.72238 4.97739L6.5621 10.8554M6.5621 10.8554L8.42831 24.572C8.66513 26.3127 8.78355 27.183 9.19967 27.8382C9.56635 28.4154 10.092 28.8744 10.7135 29.1599C11.4187 29.484 12.2971 29.484 14.0538 29.484H29.2367C30.909 29.484 31.7451 29.484 32.4284 29.1831C33.0308 28.9178 33.5477 28.4901 33.921 27.9479C34.3444 27.333 34.5008 26.5117 34.8137 24.869L37.1621 12.5403C37.2722 11.9621 37.3272 11.673 37.2474 11.4471C37.1774 11.2488 37.0393 11.0819 36.8577 10.9761C36.6506 10.8554 36.3564 10.8554 35.7678 10.8554H6.5621ZM16.1932 37.4676C16.1932 38.4475 15.3989 39.2418 14.419 39.2418C13.4392 39.2418 12.6449 38.4475 12.6449 37.4676C12.6449 36.4878 13.4392 35.6935 14.419 35.6935C15.3989 35.6935 16.1932 36.4878 16.1932 37.4676ZM30.3864 37.4676C30.3864 38.4475 29.5921 39.2418 28.6122 39.2418C27.6324 39.2418 26.8381 38.4475 26.8381 37.4676C26.8381 36.4878 27.6324 35.6935 28.6122 35.6935C29.5921 35.6935 30.3864 36.4878 30.3864 37.4676Z" stroke="white" stroke-width="3.5483" stroke-linecap="round" stroke-linejoin="round"/>
<path d="M31.4231 16.1025L21.5347 25.991C21.037 26.4886 20.7882 26.7375 20.5012 26.8307C20.2488 26.9127 19.9769 26.9127 19.7245 26.8307C19.4376 26.7375 19.1888 26.4886 18.6911 25.991L15.2512 22.5511C14.7536 22.0534 14.5047 21.8046 14.2178 21.7113C13.9654 21.6293 13.6935 21.6293 13.4411 21.7113C13.1542 21.8046 12.9053 22.0534 12.4077 22.5511L6.28931 28.6694M31.4231 16.1025H22.6263M31.4231 16.1025V24.8994" stroke="#1A72BF" stroke-width="2.51338" stroke-linecap="round" stroke-linejoin="round"/>
<path d="M47.9559 23.9184C47.9559 22.2962 48.2745 20.8576 48.9118 19.6024C49.5684 18.3472 50.447 17.3816 51.5477 16.7057C52.6678 16.0298 53.9133 15.6919 55.2844 15.6919C56.4817 15.6919 57.5245 15.9333 58.4128 16.4161C59.3204 16.8988 60.0446 17.5071 60.5853 18.2409V15.9526H64.6695V32H60.5853V29.6537C60.0639 30.4068 59.3397 31.0345 58.4128 31.5365C57.5052 32.0193 56.4527 32.2607 55.2554 32.2607C53.9037 32.2607 52.6678 31.9131 51.5477 31.2179C50.447 30.5227 49.5684 29.5475 48.9118 28.2923C48.2745 27.0178 47.9559 25.5598 47.9559 23.9184ZM60.5853 23.9763C60.5853 22.9914 60.3921 22.1514 60.0059 21.4562C59.6197 20.7417 59.0983 20.201 58.4417 19.8341C57.7852 19.4479 57.0803 19.2548 56.3272 19.2548C55.5741 19.2548 54.8789 19.4382 54.2416 19.8051C53.6043 20.172 53.083 20.7127 52.6774 21.4273C52.2912 22.1224 52.0981 22.9528 52.0981 23.9184C52.0981 24.8839 52.2912 25.7336 52.6774 26.4674C53.083 27.1819 53.6043 27.7323 54.2416 28.1185C54.8982 28.5047 55.5934 28.6978 56.3272 28.6978C57.0803 28.6978 57.7852 28.5144 58.4417 28.1475C59.0983 27.7612 59.6197 27.2205 60.0059 26.5253C60.3921 25.8108 60.5853 24.9612 60.5853 23.9763ZM72.6855 10.5648V32H68.6302V10.5648H72.6855ZM80.7475 10.5648V32H76.6922V10.5648H80.7475ZM87.0714 19.6603C87.5735 18.5982 88.3653 17.7195 89.4467 17.0244C90.5474 16.3098 91.8509 15.9526 93.3572 15.9526C94.7862 15.9526 96.0703 16.2905 97.2097 16.9664C98.3683 17.623 99.2663 18.5692 99.9036 19.8051C100.56 21.0217 100.888 22.4411 100.888 24.0632C100.888 25.6853 100.56 27.1143 99.9036 28.3502C99.2663 29.5861 98.3683 30.542 97.2097 31.2179C96.0703 31.8938 94.7862 32.2317 93.3572 32.2317C91.8702 32.2317 90.5764 31.8841 89.4757 31.1889C88.3749 30.4744 87.5735 29.5861 87.0714 28.524V39.4733H85.0728V16.1843H87.0714V19.6603ZM98.8318 24.0632C98.8318 22.7501 98.5711 21.6204 98.0497 20.6741C97.5476 19.7086 96.8524 18.9748 95.9641 18.4727C95.0758 17.9706 94.0717 17.7195 92.9516 17.7195C91.8702 17.7195 90.8757 17.9802 89.9681 18.5016C89.0798 19.023 88.3749 19.7665 87.8535 20.7321C87.3321 21.6976 87.0714 22.8176 87.0714 24.0922C87.0714 25.3667 87.3321 26.4867 87.8535 27.4523C88.3749 28.4178 89.0798 29.1613 89.9681 29.6827C90.8757 30.2041 91.8702 30.4648 92.9516 30.4648C94.0717 30.4648 95.0758 30.2137 95.9641 29.7117C96.8524 29.1903 97.5476 28.4468 98.0497 27.4812C98.5711 26.4964 98.8318 25.357 98.8318 24.0632ZM106.647 18.9941C107.091 18.0092 107.767 17.2464 108.675 16.7057C109.602 16.165 110.731 15.8947 112.064 15.8947V18.0092H111.513C110.046 18.0092 108.868 18.4051 107.98 19.1968C107.091 19.9886 106.647 21.3114 106.647 23.1652V32H104.619V16.1843H106.647V18.9941ZM116.128 13.2008C115.722 13.2008 115.375 13.056 115.085 12.7663C114.795 12.4766 114.651 12.1194 114.651 11.6945C114.651 11.2697 114.795 10.9221 115.085 10.6517C115.375 10.3621 115.722 10.2172 116.128 10.2172C116.533 10.2172 116.881 10.3621 117.171 10.6517C117.46 10.9221 117.605 11.2697 117.605 11.6945C117.605 12.1194 117.46 12.4766 117.171 12.7663C116.881 13.056 116.533 13.2008 116.128 13.2008ZM117.142 16.1843V32H115.114V16.1843H117.142ZM120.806 24.0922C120.806 22.4507 121.135 21.0217 121.791 19.8051C122.448 18.5692 123.356 17.623 124.514 16.9664C125.673 16.2905 126.996 15.9526 128.483 15.9526C130.433 15.9526 132.036 16.4354 133.291 17.4009C134.566 18.3665 135.386 19.6796 135.753 21.3404H133.581C133.31 20.201 132.721 19.3127 131.814 18.6754C130.925 18.0189 129.815 17.6906 128.483 17.6906C127.42 17.6906 126.465 17.932 125.615 18.4147C124.765 18.8975 124.089 19.6217 123.587 20.5872C123.104 21.5335 122.863 22.7018 122.863 24.0922C122.863 25.4826 123.104 26.6605 123.587 27.6261C124.089 28.5916 124.765 29.3158 125.615 29.7986C126.465 30.2813 127.42 30.5227 128.483 30.5227C129.815 30.5227 130.925 30.2041 131.814 29.5668C132.721 28.9102 133.31 28.0026 133.581 26.844H135.753C135.386 28.4661 134.566 29.7696 133.291 30.7544C132.016 31.7393 130.414 32.2317 128.483 32.2317C126.996 32.2317 125.673 31.9034 124.514 31.2469C123.356 30.571 122.448 29.6248 121.791 28.4082C121.135 27.1723 120.806 25.7336 120.806 24.0922ZM153.807 23.2811C153.807 23.9763 153.788 24.5073 153.749 24.8743H140.628C140.686 26.0715 140.975 27.095 141.497 27.9447C142.018 28.7944 142.704 29.4413 143.553 29.8855C144.403 30.3103 145.33 30.5227 146.334 30.5227C147.647 30.5227 148.748 30.2041 149.636 29.5668C150.544 28.9296 151.142 28.0702 151.432 26.9888H153.576C153.189 28.5337 152.359 29.7986 151.085 30.7834C149.829 31.749 148.246 32.2317 146.334 32.2317C144.847 32.2317 143.515 31.9034 142.337 31.2469C141.159 30.571 140.232 29.6248 139.556 28.4082C138.899 27.1723 138.571 25.7336 138.571 24.0922C138.571 22.4507 138.899 21.0121 139.556 19.7762C140.212 18.5403 141.13 17.594 142.308 16.9375C143.486 16.2809 144.828 15.9526 146.334 15.9526C147.84 15.9526 149.153 16.2809 150.273 16.9375C151.413 17.594 152.282 18.4823 152.88 19.6024C153.498 20.7031 153.807 21.9293 153.807 23.2811ZM151.751 23.2232C151.77 22.0452 151.529 21.041 151.027 20.2107C150.544 19.3803 149.878 18.7527 149.028 18.3278C148.178 17.903 147.251 17.6906 146.247 17.6906C144.741 17.6906 143.457 18.1734 142.395 19.1389C141.333 20.1045 140.744 21.4659 140.628 23.2232H151.751Z" fill="white"/>
</svg>
