<svg width="24" height="24" viewBox="0 0 24 24" fill="none" xmlns="http://www.w3.org/2000/svg">
<path d="M19.0693 4.92634C17.6705 3.52864 15.8885 2.57696 13.9487 2.19167C12.0088 1.80637 9.99826 2.00475 8.17121 2.76173C6.34415 3.51871 4.78266 4.80029 3.6842 6.4444C2.58573 8.08851 1.99963 10.0213 2 11.9984C2 14.6501 3.0534 17.1933 4.9286 19.0688C6.8038 20.9443 9.3473 21.9987 11.9999 22C13.3125 22 14.6125 21.7436 15.8266 21.245C17.0367 20.7341 18.1374 19.9959 19.0693 19.0705C19.9984 18.1418 20.7355 17.0393 21.2383 15.8259C21.7412 14.6124 22 13.3119 22 11.9984C22 10.685 21.7412 9.38441 21.2383 8.17097C20.7355 6.95754 19.9984 5.85501 19.0693 4.92634ZM18.3644 18.3557C16.9244 19.8015 15.0349 20.714 13.0069 20.943V14.339H14.9002C15.1673 14.339 15.4234 14.2329 15.6123 14.0441C15.8011 13.8554 15.9072 13.5993 15.9072 13.3323C15.9072 13.0653 15.8011 12.8092 15.6123 12.6205C15.4234 12.4317 15.1673 12.3256 14.9002 12.3256H13.0069V9.56724C13.0069 9.30024 13.113 9.04419 13.3019 8.85539C13.4907 8.6666 13.7469 8.56054 14.014 8.56054H15.2224C15.4895 8.56054 15.7457 8.45447 15.9345 8.26568C16.1234 8.07689 16.2295 7.82083 16.2295 7.55383C16.2295 7.28684 16.1234 7.03078 15.9345 6.84199C15.7457 6.6532 15.4895 6.54713 15.2224 6.54713H13.5105C12.8427 6.54713 12.2024 6.81229 11.7302 7.28427C11.2581 7.75626 10.9929 8.3964 10.9929 9.06389V12.3256H9.1097C8.84261 12.3256 8.58647 12.4317 8.39761 12.6205C8.20876 12.8092 8.10266 13.0653 8.10266 13.3323C8.10266 13.5993 8.20876 13.8554 8.39761 14.0441C8.58647 14.2329 8.84261 14.339 9.1097 14.339H10.9929V20.943C9.12268 20.7297 7.36679 19.9344 5.97322 18.6695C4.57965 17.4046 3.61883 15.734 3.22647 13.8936C2.83412 12.0533 3.03006 10.1362 3.78662 8.41321C4.54318 6.69021 5.82212 5.24837 7.44279 4.29134C9.06347 3.33431 10.944 2.91046 12.8186 3.07967C14.6933 3.24888 16.4675 4.00259 17.8904 5.23434C19.3134 6.46609 20.3133 8.11362 20.7489 9.94422C21.1845 11.7748 21.0338 13.696 20.318 15.4363C19.8613 16.5263 19.1979 17.5177 18.3644 18.3557Z" fill="#3685FB"/>
</svg>
