<svg width="25" height="24" viewBox="0 0 25 24" fill="none" xmlns="http://www.w3.org/2000/svg">
<path d="M7.81563 2.00034H16.2156C19.4156 2.00034 22.0156 4.60034 22.0156 7.80034V16.2003C22.0156 17.7386 21.4046 19.2138 20.3168 20.3016C19.2291 21.3893 17.7539 22.0003 16.2156 22.0003H7.81563C4.61563 22.0003 2.01562 19.4003 2.01562 16.2003V7.80034C2.01563 6.26208 2.62669 4.78683 3.71441 3.69912C4.80212 2.61141 6.27737 2.00034 7.81563 2.00034ZM7.61563 4.00034C6.66085 4.00034 5.74517 4.37962 5.07004 5.05475C4.39491 5.72988 4.01563 6.64556 4.01563 7.60034V16.4003C4.01563 18.3903 5.62563 20.0003 7.61563 20.0003H16.4156C17.3704 20.0003 18.2861 19.6211 18.9612 18.9459C19.6363 18.2708 20.0156 17.3551 20.0156 16.4003V7.60034C20.0156 5.61034 18.4056 4.00034 16.4156 4.00034H7.61563ZM17.2656 5.50034C17.5971 5.50034 17.9151 5.63203 18.1495 5.86645C18.3839 6.10087 18.5156 6.41882 18.5156 6.75034C18.5156 7.08186 18.3839 7.3998 18.1495 7.63422C17.9151 7.86864 17.5971 8.00034 17.2656 8.00034C16.9341 8.00034 16.6162 7.86864 16.3817 7.63422C16.1473 7.3998 16.0156 7.08186 16.0156 6.75034C16.0156 6.41882 16.1473 6.10087 16.3817 5.86645C16.6162 5.63203 16.9341 5.50034 17.2656 5.50034ZM12.0156 7.00034C13.3417 7.00034 14.6135 7.52712 15.5512 8.4648C16.4888 9.40248 17.0156 10.6743 17.0156 12.0003C17.0156 13.3264 16.4888 14.5982 15.5512 15.5359C14.6135 16.4736 13.3417 17.0003 12.0156 17.0003C10.6895 17.0003 9.41777 16.4736 8.48009 15.5359C7.54241 14.5982 7.01563 13.3264 7.01563 12.0003C7.01563 10.6743 7.54241 9.40248 8.48009 8.4648C9.41777 7.52712 10.6895 7.00034 12.0156 7.00034ZM12.0156 9.00034C11.22 9.00034 10.4569 9.31641 9.89431 9.87902C9.3317 10.4416 9.01563 11.2047 9.01563 12.0003C9.01563 12.796 9.3317 13.559 9.89431 14.1217C10.4569 14.6843 11.22 15.0003 12.0156 15.0003C12.8113 15.0003 13.5743 14.6843 14.1369 14.1217C14.6996 13.559 15.0156 12.796 15.0156 12.0003C15.0156 11.2047 14.6996 10.4416 14.1369 9.87902C13.5743 9.31641 12.8113 9.00034 12.0156 9.00034Z" fill="#3685FB"/>
</svg>
