<svg width="24" height="24" viewBox="0 0 24 24" fill="none" xmlns="http://www.w3.org/2000/svg">
<path fill-rule="evenodd" clip-rule="evenodd" d="M12.5146 8.79657V10.4933C12.8699 9.95203 13.3596 9.51234 13.9359 9.2172C14.5121 8.92207 15.1551 8.78161 15.8019 8.80957C19.2563 8.80957 20.0032 10.9692 20.0032 13.7786V19.4986H16.8038V14.4275C16.8038 13.2178 16.5598 11.662 14.6761 11.662C12.8495 11.662 12.5375 12.9788 12.5375 14.3375V19.4986H9.34814V8.79657H12.5146ZM7.20554 6.10707C7.20514 6.42402 7.1112 6.73379 6.93547 6.99756C6.75974 7.26133 6.51006 7.46735 6.21772 7.5898C5.9255 7.71126 5.60376 7.74303 5.29343 7.68107C4.9831 7.61911 4.69822 7.46622 4.47505 7.24186C4.25145 7.01736 4.09923 6.73177 4.03752 6.42098C3.97581 6.1102 4.00737 5.78811 4.12822 5.49521C4.24908 5.20232 4.45384 4.9517 4.71675 4.77486C4.97966 4.59803 5.28899 4.50288 5.60584 4.50137C5.81642 4.50137 6.02493 4.54295 6.2194 4.62371C6.41388 4.70448 6.5905 4.82285 6.73912 4.97203C6.88775 5.12122 7.00546 5.29827 7.08549 5.49305C7.16553 5.68783 7.20633 5.89649 7.20554 6.10707Z" fill="#3685FB"/>
<path d="M7.20526 8.80891H4.00586V19.4979H7.20526V8.80891Z" fill="#3685FB"/>
</svg>
