<svg width="24" height="24" viewBox="0 0 24 24" fill="none" xmlns="http://www.w3.org/2000/svg">
<path d="M17.8208 14.5318C18.3728 13.371 18.5854 12.0519 18.3805 10.7747C18.2044 9.67645 17.8359 8.77623 17.254 8.02263C16.7665 7.39134 16.1302 6.8708 15.3089 6.43126C14.3371 5.91122 13.2049 5.65576 12.0351 5.69242C10.8578 5.72933 9.69025 6.06194 8.65875 6.65425C7.45478 7.3456 6.58938 8.26126 6.08659 9.37579C6.03945 9.48027 5.99561 9.58641 5.95469 9.69407C5.9066 9.76491 5.87791 9.84645 5.87064 9.93044C5.60783 10.7245 5.50579 11.6066 5.55954 12.6088C5.58933 13.1653 5.70909 13.7212 5.91548 14.261C5.9488 14.3481 5.98448 14.4345 6.02207 14.5203C6.02311 14.5227 6.02412 14.5251 6.0252 14.5275C6.21247 14.9529 6.45168 15.3598 6.73879 15.7401C7.08361 16.1968 7.48941 16.6049 7.94499 16.9531C8.41145 17.3096 8.92051 17.5959 9.45797 17.8038C10.1944 18.0888 10.9915 18.2335 11.8065 18.2335C12.1671 18.2335 12.5311 18.2052 12.895 18.1482C14.0733 17.9636 15.1635 17.4923 16.0475 16.7853L16.0475 16.7853C16.7865 16.1942 17.3764 15.4401 17.7877 14.6004C17.8004 14.5783 17.8116 14.5554 17.8208 14.5318ZM17.3705 10.9307C17.3799 10.989 17.3882 11.0476 17.3955 11.1062C16.0799 11.6676 14.6536 12.3244 13.2428 12.981L17.2445 10.3238C17.2946 10.5173 17.3366 10.7193 17.3705 10.9307ZM17.0644 13.7152C17.0348 13.792 17.0035 13.8678 16.9708 13.9429C16.2726 14.1689 15.0777 14.6099 13.8492 15.0954C13.8988 15.0599 13.9483 15.0245 13.9978 14.9891C15.2303 14.1074 16.4959 13.2019 17.3877 12.4534C17.3308 12.8799 17.2228 13.3037 17.0644 13.7152ZM16.8507 9.27641L11.4227 11.6344L16.2526 8.40414C16.3177 8.47709 16.3798 8.55178 16.439 8.6284C16.5944 8.82962 16.7313 9.0452 16.8507 9.27641ZM7.77051 15.4035C7.69783 15.3189 7.62767 15.2321 7.56039 15.143C7.42106 14.9585 7.29597 14.7678 7.18517 14.5724L12.4976 12.2646L7.77051 15.4035ZM6.82544 10.2954C8.1362 9.53096 9.67432 8.76413 11.0294 8.12698C10.7299 8.32791 10.4299 8.52093 10.1468 8.70302C9.86626 8.88351 9.60125 9.05399 9.35872 9.21747C8.68376 9.67243 8.02853 10.1236 7.43224 10.6407C7.11253 10.918 6.83458 11.1943 6.59537 11.473C6.63286 11.0525 6.70931 10.6614 6.82544 10.2954ZM6.64832 13.1195C7.37848 12.7322 8.08992 12.3439 8.77827 11.9682C9.36348 11.6488 9.94088 11.3336 10.5198 11.0243L6.74976 13.5457C6.70887 13.4047 6.67503 13.2625 6.64832 13.1195ZM15.3478 7.62761C12.9996 8.55612 11.0103 9.60595 8.97278 10.7145C9.2791 10.4918 9.60278 10.27 9.93769 10.0443C10.1711 9.88695 10.4316 9.71936 10.7075 9.54193C11.3212 9.14715 12.0167 8.69968 12.632 8.22195C13.2103 7.77289 13.6442 7.35265 13.9475 6.94675C14.2515 7.04241 14.5435 7.16434 14.8193 7.31195C15.0073 7.41251 15.1832 7.5176 15.3478 7.62761ZM9.17519 7.52001C9.94458 7.07821 10.8012 6.80499 11.674 6.72042C10.5298 7.24031 9.12731 7.90476 7.79234 8.60945C7.80312 8.59755 7.81378 8.58558 7.82471 8.57377C8.18968 8.17955 8.64403 7.82503 9.17519 7.52001ZM8.62974 16.2041C10.0007 15.6034 11.4634 14.9212 12.8851 14.2582C13.2633 14.0819 13.6443 13.9042 14.0257 13.7271C13.8161 13.8776 13.6052 14.0284 13.3954 14.1785C11.9784 15.1922 10.6385 16.1509 9.84336 16.8745C9.83995 16.8732 9.83651 16.872 9.83309 16.8706C9.40797 16.7061 9.00352 16.482 8.62974 16.2041ZM11.4038 17.2147C12.0387 16.9234 12.8874 16.5632 13.8653 16.1717C13.9065 16.1552 13.9478 16.1387 13.989 16.1222C13.5692 16.4529 13.1488 16.8013 12.7581 17.1526C12.31 17.2246 11.8539 17.246 11.4038 17.2147Z" fill="#F9B800"/>
<path d="M11.9993 4.65765C12.2816 4.65765 12.5105 4.4331 12.5105 4.15608V0.956162C12.5105 0.679144 12.2816 0.45459 11.9993 0.45459C11.7169 0.45459 11.488 0.679144 11.488 0.956162V4.15608C11.488 4.4331 11.7169 4.65765 11.9993 4.65765Z" fill="#F9B800"/>
<path d="M8.52274 4.97718C8.60428 5.17034 8.79462 5.28693 8.99523 5.28693C9.06042 5.28693 9.12669 5.27462 9.19067 5.24862C9.45151 5.14261 9.57539 4.84921 9.46734 4.59329L8.86939 3.17695C8.76135 2.92104 8.46235 2.79949 8.20146 2.9055C7.94062 3.01151 7.81674 3.30491 7.92479 3.56083L8.52274 4.97718Z" fill="#F9B800"/>
<path d="M6.10143 6.84988C6.20125 6.94783 6.33207 6.99679 6.46292 6.99679C6.59374 6.99679 6.7246 6.9478 6.8244 6.84988C7.02405 6.65401 7.02405 6.33643 6.8244 6.14056L4.5182 3.87786C4.31856 3.68198 3.99487 3.682 3.79525 3.87786C3.5956 4.07373 3.5956 4.39131 3.79525 4.58718L6.10143 6.84988Z" fill="#F9B800"/>
<path d="M2.80375 8.75902L4.59876 9.48851C4.66275 9.51452 4.72898 9.52682 4.79419 9.52682C4.99479 9.52682 5.18516 9.41022 5.26668 9.21707C5.37473 8.96114 5.25086 8.66775 4.99001 8.56174L3.19502 7.83225C2.93421 7.72626 2.63514 7.84777 2.52708 8.1037C2.41904 8.35961 2.54292 8.65302 2.80375 8.75902Z" fill="#F9B800"/>
<path d="M4.74532 11.9903C4.74532 11.7133 4.51643 11.4888 4.2341 11.4888H0.972644C0.690298 11.4888 0.461426 11.7133 0.461426 11.9903C0.461426 12.2673 0.690298 12.4919 0.972644 12.4919H4.2341C4.51643 12.4919 4.74532 12.2673 4.74532 11.9903Z" fill="#F9B800"/>
<path d="M14.8108 5.2486C14.8748 5.27461 14.9411 5.28692 15.0063 5.28692C15.2069 5.28692 15.3972 5.17031 15.4788 4.97716L16.0767 3.56083C16.1848 3.3049 16.0609 3.0115 15.8 2.90549C15.5392 2.7995 15.2401 2.92102 15.1321 3.17695L14.5342 4.59328C14.4261 4.84919 14.55 5.14259 14.8108 5.2486Z" fill="#F9B800"/>
<path d="M17.5376 6.99678C17.6684 6.99678 17.7992 6.94781 17.8991 6.84987L20.2053 4.58719C20.4049 4.39132 20.4049 4.07373 20.2053 3.87786C20.0056 3.68199 19.6819 3.68199 19.4823 3.87786L17.1761 6.14055C16.9765 6.33643 16.9765 6.654 17.1761 6.84987C17.2759 6.94782 17.4067 6.99678 17.5376 6.99678Z" fill="#F9B800"/>
<path d="M18.7348 9.21708C18.8164 9.41024 19.0067 9.52684 19.2073 9.52684C19.2725 9.52684 19.3388 9.51452 19.4028 9.48852L21.1978 8.75903C21.4586 8.65302 21.5825 8.35962 21.4745 8.1037C21.3664 7.84777 21.0673 7.72626 20.8065 7.83225L19.0115 8.56174C18.7507 8.66775 18.6268 8.96116 18.7348 9.21708Z" fill="#F9B800"/>
<path d="M23.0276 11.4888H19.7661C19.4838 11.4888 19.2549 11.7133 19.2549 11.9903C19.2549 12.2673 19.4838 12.4919 19.7661 12.4919H23.0276C23.3099 12.4919 23.5388 12.2673 23.5388 11.9903C23.5388 11.7133 23.3099 11.4888 23.0276 11.4888Z" fill="#F9B800"/>
<path d="M11.9993 19.3232C11.7169 19.3232 11.488 19.5478 11.488 19.8248V23.0247C11.488 23.3017 11.7169 23.5263 11.9993 23.5263C12.2816 23.5263 12.5105 23.3017 12.5105 23.0247V19.8248C12.5105 19.5478 12.2816 19.3232 11.9993 19.3232Z" fill="#F9B800"/>
<path d="M9.19067 18.7322C8.92983 18.6262 8.63077 18.7477 8.52274 19.0036L7.92479 20.4199C7.81674 20.6759 7.94062 20.9693 8.20146 21.0753C8.26545 21.1013 8.33169 21.1136 8.3969 21.1136C8.59749 21.1136 8.78786 20.997 8.86939 20.8038L9.46735 19.3875C9.57539 19.1316 9.45151 18.8382 9.19067 18.7322Z" fill="#F9B800"/>
<path d="M6.10143 17.1313L3.79525 19.394C3.5956 19.5899 3.5956 19.9074 3.79525 20.1033C3.89506 20.2012 4.0259 20.2502 4.15673 20.2502C4.28756 20.2502 4.41839 20.2012 4.51821 20.1033L6.82441 17.8406C7.02406 17.6447 7.02406 17.3272 6.82441 17.1313C6.62475 16.9354 6.30106 16.9354 6.10143 17.1313Z" fill="#F9B800"/>
<path d="M5.26669 14.7639C5.15865 14.5079 4.85965 14.3864 4.59876 14.4924L2.80375 15.2219C2.54291 15.3279 2.41904 15.6213 2.52708 15.8772C2.60863 16.0704 2.79898 16.187 2.99959 16.187C3.06477 16.187 3.13104 16.1747 3.19502 16.1487L4.99001 15.4192C5.25086 15.3132 5.37473 15.0198 5.26669 14.7639Z" fill="#F9B800"/>
<path d="M15.4788 19.0036C15.3707 18.7477 15.0717 18.6261 14.8108 18.7322C14.55 18.8382 14.4261 19.1316 14.5342 19.3875L15.1321 20.8038C15.2137 20.997 15.404 21.1136 15.6046 21.1136C15.6698 21.1136 15.7361 21.1013 15.8 21.0753C16.0609 20.9693 16.1848 20.6759 16.0767 20.4199L15.4788 19.0036Z" fill="#F9B800"/>
<path d="M17.8991 17.1313C17.6994 16.9354 17.3757 16.9354 17.1761 17.1313C16.9765 17.3272 16.9765 17.6447 17.1761 17.8406L19.4823 20.1033C19.5821 20.2012 19.7129 20.2502 19.8438 20.2502C19.9746 20.2502 20.1055 20.2012 20.2053 20.1033C20.4049 19.9074 20.4049 19.5898 20.2053 19.394L17.8991 17.1313Z" fill="#F9B800"/>
<path d="M21.1978 15.2219L19.4028 14.4924C19.142 14.3864 18.8429 14.5079 18.7348 14.7639C18.6268 15.0198 18.7507 15.3132 19.0115 15.4192L20.8065 16.1487C20.8705 16.1747 20.9368 16.187 21.002 16.187C21.2026 16.187 21.3929 16.0704 21.4745 15.8772C21.5825 15.6213 21.4586 15.3279 21.1978 15.2219Z" fill="#F9B800"/>
</svg>
