<svg width="24" height="24" viewBox="0 0 24 24" fill="none" xmlns="http://www.w3.org/2000/svg">
<path d="M6.33822 14.8448C6.45542 13.8744 6.85342 13.3311 7.60344 12.7741C8.67659 12.0198 10.0171 12.4465 10.0171 12.4465V9.91511C10.343 9.90678 10.669 9.9261 10.9914 9.97283V13.2305C10.9914 13.2305 9.65125 12.8038 8.5781 13.5585C7.82849 14.1151 7.42967 14.6588 7.31288 15.6292C7.30921 16.1562 7.4081 16.845 7.86349 17.4406C7.7509 17.3829 7.63614 17.3171 7.5192 17.2432C6.51606 16.5696 6.33333 15.559 6.33822 14.8448ZM16.5264 5.2346C15.7881 4.42566 15.509 3.60891 15.4081 3.03516H16.3367C16.3367 3.03516 16.1516 4.53955 17.501 6.01898L17.5197 6.03887C17.156 5.81009 16.8225 5.54005 16.5264 5.2346ZM21 7.52805V10.7202C21 10.7202 19.815 10.6737 18.938 10.4506C17.7135 10.1386 16.9264 9.66002 16.9264 9.66002C16.9264 9.66002 16.3827 9.31873 16.3388 9.29494V15.8866C16.3388 16.2537 16.2382 17.1703 15.9318 17.9348C15.5318 18.9348 14.9144 19.5913 14.8009 19.7254C14.8009 19.7254 14.05 20.6128 12.7254 21.2103C11.5314 21.7494 10.4831 21.7357 10.1697 21.7494C10.1697 21.7494 8.35753 21.8211 6.72686 20.7614C6.37424 20.5278 6.04508 20.2633 5.74365 19.9712L5.75179 19.977C7.38287 21.0368 9.19464 20.965 9.19464 20.965C9.5084 20.9513 10.5567 20.965 11.7503 20.426C13.0738 19.8284 13.8258 18.9411 13.8258 18.9411C13.9381 18.8069 14.5583 18.1505 14.9567 17.15C15.2624 16.3859 15.3637 15.4689 15.3637 15.1019V8.51096C15.4076 8.53514 15.9509 8.87643 15.9509 8.87643C15.9509 8.87643 16.7384 9.3554 17.9629 9.66704C18.8403 9.89014 20.025 9.93656 20.025 9.93656V7.43522C20.4303 7.5261 20.7758 7.55067 21 7.52805Z" fill="#EE1D52"/>
<path d="M20.0254 7.43522V9.93578C20.0254 9.93578 18.8407 9.88936 17.9634 9.66626C16.7388 9.35423 15.9514 8.87565 15.9514 8.87565C15.9514 8.87565 15.4081 8.53436 15.3641 8.51018V15.1027C15.3641 15.4697 15.2636 16.3867 14.9572 17.1508C14.5571 18.1512 13.9398 18.8077 13.8262 18.9418C13.8262 18.9418 13.075 19.8292 11.7508 20.4267C10.5572 20.9658 9.50883 20.9521 9.19507 20.9658C9.19507 20.9658 7.3833 21.0375 5.75222 19.9778L5.74408 19.972C5.57187 19.8052 5.40978 19.6291 5.25858 19.4446C4.73808 18.81 4.41903 18.0596 4.33886 17.8454C4.33872 17.8445 4.33872 17.8436 4.33886 17.8427C4.20986 17.4706 3.93882 16.577 3.97586 15.7115C4.04138 14.1845 4.57856 13.2472 4.72059 13.0124C5.09674 12.3721 5.58597 11.7992 6.1665 11.3193C6.67879 10.9051 7.25945 10.5755 7.88467 10.3442C8.56055 10.0725 9.28431 9.92686 10.0171 9.91511V12.4465C10.0171 12.4465 8.67661 12.0213 7.60387 12.7741C6.85385 13.3311 6.45585 13.8744 6.33864 14.8448C6.33376 15.559 6.51648 16.5696 7.51882 17.2436C7.63575 17.3177 7.75051 17.3835 7.8631 17.441C8.03821 17.6686 8.25134 17.8669 8.49388 18.028C9.47302 18.6478 10.2934 18.6911 11.3426 18.2885C12.0421 18.0194 12.5687 17.4129 12.8129 16.7408C12.9663 16.3212 12.9643 15.8987 12.9643 15.4619V3.03516H15.406C15.507 3.60891 15.7861 4.42566 16.5244 5.2346C16.8205 5.54005 17.154 5.81009 17.5177 6.03887C17.6252 6.15003 18.1746 6.6996 18.8798 7.03699C19.2445 7.21138 19.6289 7.345 20.0254 7.43522V7.43522Z" fill="black"/>
<path d="M3.36694 17.0674V17.0693L3.42753 17.2335C3.42057 17.2144 3.39806 17.1563 3.36694 17.0674Z" fill="#69C9D0"/>
<path d="M7.88461 10.3435C7.25939 10.5749 6.67873 10.9044 6.16644 11.3186C5.58572 11.7997 5.09661 12.3738 4.72094 13.0153C4.57891 13.2493 4.04172 14.1874 3.9762 15.7144C3.93917 16.5799 4.2102 17.4735 4.33921 17.8456C4.33907 17.8465 4.33907 17.8474 4.33921 17.8483C4.4206 18.0605 4.73843 18.8109 5.25893 19.4475C5.41012 19.632 5.57222 19.808 5.74443 19.9748C5.19268 19.6091 4.7006 19.1669 4.28427 18.6627C3.76825 18.0336 3.45001 17.2909 3.36699 17.0717C3.36689 17.0702 3.36689 17.0686 3.36699 17.067V17.0643C3.23758 16.6926 2.96573 15.7986 3.00358 14.9319C3.0691 13.4049 3.60628 12.4677 3.74831 12.2329C4.12388 11.5913 4.613 11.0171 5.19382 10.5362C5.706 10.1219 6.28669 9.7923 6.91199 9.56107C7.30202 9.40597 7.70833 9.29155 8.1239 9.21978C8.75019 9.115 9.38984 9.10591 10.0191 9.19287V9.91444C9.2856 9.92595 8.56113 10.0716 7.88461 10.3435Z" fill="#69C9D0"/>
<path d="M15.4081 3.03476H12.9663V15.4619C12.9663 15.8987 12.9663 16.32 12.815 16.7408C12.5683 17.4125 12.0438 18.019 11.3446 18.2881C10.2951 18.6922 9.47467 18.6474 8.49594 18.0276C8.25297 17.8673 8.03929 17.6696 7.86353 17.4425C8.69738 17.8688 9.44374 17.8614 10.3683 17.5057C11.0671 17.2366 11.5925 16.6301 11.8383 15.958C11.9921 15.5383 11.9901 15.1159 11.9901 14.6795V2.25H15.3617C15.3617 2.25 15.3238 2.55891 15.4081 3.03476ZM20.0254 6.74328V7.43483C19.6296 7.34447 19.2459 7.21085 18.8819 7.0366C18.1766 6.69921 17.6272 6.14964 17.5198 6.03848C17.6445 6.11693 17.7738 6.1883 17.9072 6.25222C18.7647 6.66255 19.6091 6.78502 20.0254 6.74328Z" fill="#69C9D0"/>
</svg>
