<svg width="24" height="24" viewBox="0 0 24 24" fill="none" xmlns="http://www.w3.org/2000/svg">
<path d="M12.0118 20.4991C13.8215 20.4991 15.5561 20.3202 17.1638 19.9922C19.1735 19.5823 20.1773 19.3783 21.0931 18.2006C22.0099 17.0218 22.0099 15.669 22.0099 12.9635V11.0379C22.0099 8.3324 22.0099 6.97865 21.0931 5.80087C20.1773 4.62309 19.1735 4.41812 17.1638 4.0092C15.4676 3.66922 13.7417 3.49941 12.0118 3.50229C10.2021 3.50229 8.46747 3.68126 6.85977 4.0092C4.85014 4.41912 3.84633 4.62309 2.9305 5.80087C2.01367 6.97965 2.01367 8.3324 2.01367 11.0379V12.9635C2.01367 15.669 2.01367 17.0228 2.9305 18.2006C3.84633 19.3783 4.85014 19.5833 6.85977 19.9922C8.46747 20.3202 10.2021 20.4991 12.0118 20.4991Z" stroke="#3685FB" stroke-width="1.49972" stroke-linecap="round" stroke-linejoin="round"/>
<path d="M15.9734 12.3134C15.8254 12.9193 15.0356 13.3532 13.4569 14.224C11.7392 15.1708 10.8803 15.6437 10.1855 15.4608C9.95391 15.401 9.73757 15.293 9.5506 15.1438C9.0127 14.7089 9.0127 13.8061 9.0127 12.0004C9.0127 10.1948 9.0127 9.29193 9.5506 8.85701C9.73256 8.71004 9.95052 8.60106 10.1855 8.54007C10.8803 8.35711 11.7392 8.83002 13.4569 9.77684C15.0366 10.6467 15.8254 11.0816 15.9734 11.6875C16.0234 11.8934 16.0234 12.1074 15.9734 12.3134Z" stroke="#3685FB" stroke-width="1.49972" stroke-linecap="round" stroke-linejoin="round"/>
</svg>
