<svg width="216" height="65" viewBox="0 0 216 65" fill="none" xmlns="http://www.w3.org/2000/svg">
<g clip-path="url(#clip0_1106_11731)">
<path d="M198.796 0.500208H17.2077C16.5458 0.500208 15.8918 0.500208 15.2316 0.503408C14.679 0.506608 14.1308 0.515904 13.5729 0.523728C12.3608 0.536371 11.1516 0.63089 9.95573 0.806464C8.76155 0.98586 7.60478 1.32407 6.52454 1.80966C5.44562 2.29936 4.45978 2.93568 3.60279 3.69552C2.7413 4.45323 2.02318 5.32903 1.47604 6.28926C0.927395 7.24758 0.546963 8.27451 0.347882 9.33458C0.146909 10.3933 0.0387641 11.4642 0.0244169 12.5378C0.00766598 13.0283 0.00589702 13.5205 -0.00292969 14.0112V50.994C0.00589702 51.4908 0.00766598 51.972 0.0244169 52.469C0.0387685 53.5425 0.146914 54.6134 0.347882 55.672C0.546413 56.7327 0.926868 57.7602 1.47604 58.7189C2.02293 59.676 2.74115 60.5483 3.60279 61.3018C4.45653 62.065 5.44301 62.7018 6.52454 63.1877C7.60477 63.6746 8.76142 64.0148 9.95573 64.197C11.1518 64.3712 12.3609 64.4657 13.5729 64.4799C14.1308 64.4908 14.679 64.497 15.2316 64.497C15.8918 64.5002 16.5458 64.5002 17.2077 64.5002H198.796C199.445 64.5002 200.104 64.5002 200.753 64.497C201.303 64.497 201.867 64.4908 202.417 64.4799C203.627 64.4665 204.833 64.3719 206.027 64.197C207.225 64.0136 208.386 63.6734 209.471 63.1877C210.552 62.7015 211.538 62.0648 212.391 61.3018C213.25 60.5454 213.97 59.6737 214.523 58.7189C215.068 57.7595 215.445 56.7321 215.641 55.672C215.842 54.6132 215.954 53.5426 215.976 52.469C215.983 51.972 215.983 51.4908 215.983 50.994C215.997 50.4127 215.997 49.8346 215.997 49.2439V15.758C215.997 15.1721 215.997 14.5908 215.983 14.0112C215.983 13.5205 215.983 13.0283 215.976 12.5377C215.954 11.4641 215.842 10.3934 215.641 9.33451C215.445 8.27506 215.068 7.24821 214.523 6.2892C213.409 4.36452 211.642 2.79785 209.471 1.80952C208.386 1.32512 207.225 0.986993 206.027 0.80632C204.834 0.629972 203.627 0.53542 202.417 0.523504C201.867 0.515696 201.303 0.50632 200.753 0.5032C200.104 0.5 199.445 0.500208 198.796 0.500208Z" fill="#6460BE"/>
<path d="M15.2405 63.1004C14.6906 63.1004 14.1539 63.0942 13.6082 63.0833C12.4779 63.0702 11.3502 62.983 10.2343 62.8223C9.1939 62.6635 8.18598 62.368 7.24384 61.9457C6.31035 61.5268 5.45892 60.9776 4.72218 60.3191C3.97478 59.6684 3.35254 58.9136 2.88011 58.0847C2.40247 57.2505 2.07192 56.3562 1.89997 55.4332C1.71427 54.4414 1.6138 53.4385 1.59942 52.4332C1.58798 52.0958 1.573 50.9722 1.573 50.9722V14.0113C1.573 14.0113 1.58895 12.9051 1.59951 12.5801C1.61328 11.5764 1.71316 10.575 1.8983 9.58476C2.07058 8.65919 2.40139 7.76239 2.87928 6.9254C3.34997 6.0971 3.96876 5.34177 4.71166 4.68868C5.45372 4.02939 6.30787 3.47736 7.24296 3.05273C8.18293 2.63174 9.18894 2.33836 10.2273 2.18242C11.3468 2.02013 12.4784 1.93238 13.6127 1.91993L15.2414 1.90039H200.744L202.392 1.92071C203.516 1.93255 204.638 2.01951 205.747 2.18085C206.796 2.33875 207.812 2.63418 208.763 3.05741C210.636 3.91317 212.161 5.26705 213.122 6.9293C213.592 7.76052 213.918 8.65 214.088 9.56757C214.275 10.566 214.38 11.5752 214.402 12.5871C214.407 13.0402 214.407 13.527 214.407 14.0113C214.421 14.6113 214.421 15.1824 214.421 15.7582V49.2441C214.421 49.8254 214.421 50.3926 214.407 50.9644C214.407 51.4847 214.407 51.9613 214.4 52.4519C214.379 53.4458 214.276 54.437 214.092 55.4175C213.923 56.3472 213.594 57.2484 213.117 58.0895C212.641 58.9094 212.022 59.6576 211.284 60.3066C210.546 60.9687 209.693 61.5211 208.758 61.9426C207.81 62.3682 206.795 62.6648 205.747 62.8223C204.631 62.9838 203.503 63.0711 202.373 63.0833C201.844 63.0942 201.291 63.1004 200.753 63.1004L198.796 63.1036L15.2405 63.1004Z" fill="white"/>
<path d="M51.6274 32.9807C51.6446 31.6453 51.9993 30.3359 52.6585 29.1743C53.3178 28.0128 54.2601 27.0369 55.3979 26.3374C54.6751 25.3052 53.7216 24.4557 52.613 23.8564C51.5045 23.2571 50.2715 22.9245 49.012 22.8851C46.3252 22.6031 43.7205 24.4929 42.3514 24.4929C40.9557 24.4929 38.8477 22.9131 36.5778 22.9598C35.1095 23.0073 33.6785 23.4342 32.4243 24.1991C31.1701 24.964 30.1354 26.0408 29.4211 27.3244C26.3267 32.6819 28.6348 40.5556 31.599 44.8862C33.082 47.0067 34.8153 49.3754 37.0832 49.2914C39.3025 49.1994 40.1314 47.8763 42.8103 47.8763C45.4643 47.8763 46.2419 49.2914 48.5559 49.238C50.9373 49.1994 52.4377 47.1081 53.8687 44.9674C54.9342 43.4564 55.7542 41.7865 56.2981 40.0194C54.9146 39.4342 53.7339 38.4547 52.9033 37.2031C52.0727 35.9514 51.629 34.4829 51.6274 32.9807Z" fill="#6460BE"/>
<path d="M47.2567 20.0371C48.5552 18.4784 49.1949 16.4749 49.04 14.4521C47.0562 14.6605 45.2238 15.6086 43.9078 17.1075C43.2644 17.8398 42.7716 18.6917 42.4576 19.6145C42.1436 20.5374 42.0146 21.513 42.0779 22.4857C43.0701 22.496 44.0517 22.2809 44.9488 21.8568C45.8459 21.4326 46.635 20.8105 47.2567 20.0371Z" fill="#6460BE"/>
<path d="M79.6808 43.9233H72.1074L70.2886 49.2936H67.0808L74.2543 29.4248H77.5871L84.7605 49.2936H81.498L79.6808 43.9233ZM72.8917 41.4452H78.8949L75.9356 32.7295H75.8527L72.8917 41.4452Z" fill="#6460BE"/>
<path d="M100.253 42.0513C100.253 46.5529 97.8434 49.4451 94.2075 49.4451C93.2864 49.4932 92.3704 49.2811 91.5644 48.8329C90.7583 48.3846 90.0947 47.7185 89.6497 46.9107H89.5809V54.0857H86.6074V34.8076H89.4856V37.2169H89.5403C90.0058 36.413 90.6806 35.7503 91.4928 35.2993C92.305 34.8484 93.2243 34.626 94.1528 34.656C97.8293 34.656 100.253 37.5622 100.253 42.0513ZM97.1965 42.0513C97.1965 39.1185 95.6809 37.1904 93.3684 37.1904C91.0965 37.1904 89.5684 39.1591 89.5684 42.0513C89.5684 44.9701 91.0965 46.9248 93.3684 46.9248C95.6809 46.9248 97.1965 45.0107 97.1965 42.0513Z" fill="#6460BE"/>
<path d="M116.196 42.0513C116.196 46.5529 113.787 49.445 110.151 49.445C109.23 49.4932 108.314 49.2811 107.508 48.8328C106.702 48.3846 106.038 47.7185 105.593 46.9106H105.524V54.0857H102.551V34.8075H105.429V37.2169H105.484C105.949 36.413 106.624 35.7503 107.436 35.2993C108.249 34.8484 109.168 34.626 110.096 34.656C113.773 34.656 116.196 37.5622 116.196 42.0513ZM113.14 42.0513C113.14 39.1185 111.624 37.1904 109.312 37.1904C107.04 37.1904 105.512 39.1591 105.512 42.0513C105.512 44.9701 107.04 46.9247 109.312 46.9247C111.625 46.9247 113.14 45.0107 113.14 42.0513Z" fill="#6460BE"/>
<path d="M126.734 43.7579C126.954 45.7282 128.868 47.0219 131.484 47.0219C133.99 47.0219 135.793 45.7282 135.793 43.9516C135.793 42.4094 134.706 41.486 132.131 40.8531L129.556 40.2328C125.907 39.3516 124.214 37.6453 124.214 34.8766C124.214 31.4484 127.201 29.0938 131.443 29.0938C135.642 29.0938 138.52 31.4484 138.617 34.8766H135.615C135.436 32.8937 133.796 31.6969 131.401 31.6969C129.006 31.6969 127.367 32.9078 127.367 34.6703C127.367 36.075 128.414 36.9016 130.975 37.5343L133.164 38.0718C137.24 39.0359 138.934 40.6734 138.934 43.5796C138.934 47.2968 135.973 49.6249 131.264 49.6249C126.857 49.6249 123.882 47.3515 123.69 43.7577L126.734 43.7579Z" fill="#6460BE"/>
<path d="M145.351 31.3799V34.808H148.106V37.1627H145.351V45.1486C145.351 46.3893 145.903 46.9674 147.114 46.9674C147.441 46.9617 147.767 46.9387 148.092 46.8986V49.2392C147.547 49.3409 146.994 49.387 146.44 49.3767C143.507 49.3767 142.364 48.2751 142.364 45.4658V37.1627H140.257V34.808H142.364V31.3799H145.351Z" fill="#6460BE"/>
<path d="M149.701 42.0518C149.701 37.4939 152.386 34.6299 156.571 34.6299C160.771 34.6299 163.443 37.4939 163.443 42.0518C163.443 46.6221 160.786 49.4736 156.571 49.4736C152.359 49.4736 149.701 46.6221 149.701 42.0518ZM160.414 42.0518C160.414 38.9252 158.981 37.0799 156.571 37.0799C154.162 37.0799 152.731 38.9393 152.731 42.0518C152.731 45.1908 154.162 47.0221 156.571 47.0221C158.981 47.0221 160.414 45.1908 160.414 42.0518Z" fill="#6460BE"/>
<path d="M165.895 34.8074H168.731V37.273H168.8C168.992 36.503 169.443 35.8224 170.077 35.3458C170.712 34.8692 171.491 34.6256 172.284 34.6558C172.627 34.6546 172.969 34.6919 173.303 34.7668V37.548C172.87 37.4158 172.419 37.3552 171.967 37.3683C171.535 37.3508 171.104 37.427 170.705 37.5916C170.305 37.7562 169.945 38.0054 169.651 38.322C169.357 38.6386 169.134 39.0152 168.999 39.4259C168.864 39.8366 168.82 40.2716 168.868 40.7011V49.2933H165.895L165.895 34.8074Z" fill="#6460BE"/>
<path d="M187.012 45.0393C186.612 47.6689 184.051 49.4736 180.775 49.4736C176.56 49.4736 173.945 46.6502 173.945 42.1205C173.945 37.5768 176.575 34.6299 180.65 34.6299C184.657 34.6299 187.178 37.383 187.178 41.7752V42.7939H176.946V42.9736C176.899 43.5067 176.966 44.0438 177.142 44.5492C177.318 45.0545 177.6 45.5166 177.969 45.9046C178.337 46.2927 178.784 46.5979 179.28 46.8C179.776 47.0021 180.308 47.0964 180.843 47.0767C181.546 47.1426 182.251 46.9798 182.854 46.6127C183.457 46.2456 183.925 45.6938 184.189 45.0392L187.012 45.0393ZM176.96 40.7158H184.203C184.229 40.2365 184.157 39.7568 183.989 39.3068C183.822 38.8569 183.563 38.4464 183.229 38.1012C182.896 37.756 182.494 37.4834 182.05 37.3007C181.606 37.118 181.129 37.0289 180.65 37.0393C180.165 37.0364 179.685 37.1294 179.237 37.313C178.789 37.4966 178.382 37.7671 178.039 38.1089C177.696 38.4507 177.424 38.8571 177.239 39.3045C177.054 39.7519 176.959 40.2316 176.96 40.7158Z" fill="#6460BE"/>
<path d="M67.6343 23.2998V13.4355H71.1958C74.1216 13.4355 75.8374 15.2402 75.8374 18.3369V18.3506C75.8374 21.4814 74.1353 23.2998 71.1958 23.2998H67.6343ZM69.1655 21.9805H71.0249C73.0894 21.9805 74.2788 20.6611 74.2788 18.3711V18.3574C74.2788 16.0879 73.0688 14.7549 71.0249 14.7549H69.1655V21.9805ZM78.5171 14.5498C78.0044 14.5498 77.5874 14.1328 77.5874 13.627C77.5874 13.1143 78.0044 12.6973 78.5171 12.6973C79.0229 12.6973 79.4468 13.1143 79.4468 13.627C79.4468 14.1328 79.0229 14.5498 78.5171 14.5498ZM77.772 23.2998V15.876H79.2485V23.2998H77.772ZM84.1089 23.4434C82.3179 23.4434 81.1831 22.6025 81.0396 21.3584V21.3516H82.5229L82.5298 21.3584C82.7144 21.9189 83.2544 22.2949 84.1362 22.2949C85.0522 22.2949 85.688 21.8779 85.688 21.2695V21.2559C85.688 20.791 85.3394 20.4766 84.478 20.2783L83.2954 20.0049C81.894 19.6836 81.2446 19.0479 81.2446 17.9609V17.9541C81.2446 16.6621 82.4478 15.7324 84.1294 15.7324C85.8247 15.7324 86.9116 16.5801 87.0415 17.79V17.7969H85.6265V17.7832C85.4829 17.2637 84.9565 16.874 84.1226 16.874C83.3091 16.874 82.7212 17.2773 82.7212 17.8721V17.8857C82.7212 18.3506 83.063 18.6377 83.897 18.8359L85.0728 19.1025C86.5015 19.4375 87.1851 20.0459 87.1851 21.1191V21.1328C87.1851 22.5068 85.8726 23.4434 84.1089 23.4434ZM88.9556 25.7744V15.876H90.439V17.0449H90.5483C90.979 16.2314 91.7925 15.7461 92.8315 15.7461C94.7046 15.7461 95.9077 17.2432 95.9077 19.5811V19.5947C95.9077 21.9463 94.7183 23.4229 92.8315 23.4229C91.813 23.4229 90.9448 22.9238 90.5483 22.124H90.439V25.7744H88.9556ZM92.4146 22.1582C93.6519 22.1582 94.397 21.1875 94.397 19.5947V19.5811C94.397 17.9814 93.6519 17.0176 92.4146 17.0176C91.1772 17.0176 90.4116 17.9951 90.4116 19.5811V19.5947C90.4116 21.1807 91.1772 22.1582 92.4146 22.1582ZM100.836 23.4434C98.6558 23.4434 97.3228 21.9873 97.3228 19.5947V19.5811C97.3228 17.1953 98.6626 15.7324 100.836 15.7324C103.003 15.7324 104.343 17.1885 104.343 19.5811V19.5947C104.343 21.9873 103.01 23.4434 100.836 23.4434ZM100.836 22.2061C102.108 22.2061 102.833 21.2354 102.833 19.5947V19.5811C102.833 17.9336 102.108 16.9697 100.836 16.9697C99.5581 16.9697 98.8403 17.9336 98.8403 19.5811V19.5947C98.8403 21.2422 99.5581 22.2061 100.836 22.2061ZM106.114 23.2998V15.876H107.597V17.0039H107.707C108.069 16.2109 108.78 15.7324 109.86 15.7324C111.521 15.7324 112.437 16.7236 112.437 18.4941V23.2998H110.96V18.8428C110.96 17.6123 110.448 17.0039 109.361 17.0039C108.274 17.0039 107.597 17.749 107.597 18.9453V23.2998H106.114ZM115.773 14.8506H114.604L115.807 12.499H117.386L115.773 14.8506ZM114.536 23.2998V15.876H116.012V23.2998H114.536ZM120.216 23.2998L117.53 15.876H119.102L120.955 21.7959H121.071L122.917 15.876H124.475L121.795 23.2998H120.216ZM128.795 23.4434C126.622 23.4434 125.309 21.96 125.309 19.6084V19.6016C125.309 17.2842 126.649 15.7324 128.72 15.7324C130.792 15.7324 132.063 17.2295 132.063 19.458V19.9775H126.799C126.827 21.3994 127.606 22.2266 128.83 22.2266C129.78 22.2266 130.347 21.7549 130.525 21.3721L130.552 21.3174L131.981 21.3105L131.967 21.3721C131.721 22.3496 130.696 23.4434 128.795 23.4434ZM128.727 16.9492C127.715 16.9492 126.95 17.6396 126.82 18.918H130.593C130.477 17.5918 129.732 16.9492 128.727 16.9492ZM133.895 23.2998V12.9639H135.378V23.2998H133.895ZM141.415 23.2998V15.876H142.898V17.0039H143.007C143.37 16.2109 144.081 15.7324 145.161 15.7324C146.822 15.7324 147.738 16.7236 147.738 18.4941V23.2998H146.261V18.8428C146.261 17.6123 145.749 17.0039 144.662 17.0039C143.575 17.0039 142.898 17.749 142.898 18.9453V23.2998H141.415ZM151.846 23.4229C150.431 23.4229 149.385 22.5615 149.385 21.2148V21.2012C149.385 19.875 150.383 19.1025 152.154 18.9932L154.164 18.877V18.2207C154.164 17.4072 153.651 16.9561 152.646 16.9561C151.826 16.9561 151.286 17.2568 151.108 17.7832L151.101 17.8105H149.672L149.679 17.7627C149.857 16.5459 151.026 15.7324 152.714 15.7324C154.581 15.7324 155.633 16.6621 155.633 18.2207V23.2998H154.164V22.2471H154.047C153.61 22.999 152.831 23.4229 151.846 23.4229ZM150.862 21.1533C150.862 21.8369 151.443 22.2402 152.243 22.2402C153.35 22.2402 154.164 21.5156 154.164 20.5586V19.9229L152.352 20.0391C151.327 20.1006 150.862 20.4697 150.862 21.1396V21.1533Z" fill="#6460BE"/>
</g>
<defs>
<clipPath id="clip0_1106_11731">
<rect width="216" height="64" fill="white" transform="translate(-0.00292969 0.5)"/>
</clipPath>
</defs>
</svg>
