<svg width="216" height="65" viewBox="0 0 216 65" fill="none" xmlns="http://www.w3.org/2000/svg">
<g clip-path="url(#clip0_1303_9146)">
<path d="M198.799 0.500208H17.2106C16.5487 0.500208 15.8947 0.500208 15.2346 0.503408C14.6819 0.506608 14.1337 0.515904 13.5758 0.523728C12.3637 0.536371 11.1545 0.63089 9.95866 0.806464C8.76448 0.98586 7.60771 1.32407 6.52747 1.80966C5.44855 2.29936 4.46271 2.93568 3.60572 3.69552C2.74423 4.45323 2.02611 5.32903 1.47897 6.28926C0.930325 7.24758 0.549892 8.27451 0.350812 9.33458C0.149839 10.3933 0.0416938 11.4642 0.0273466 12.5378C0.0105957 13.0283 0.00882671 13.5205 0 14.0112V50.994C0.00882671 51.4908 0.0105957 51.972 0.0273466 52.469C0.0416982 53.5425 0.149844 54.6134 0.350812 55.672C0.549343 56.7327 0.929798 57.7602 1.47897 58.7189C2.02586 59.676 2.74408 60.5483 3.60572 61.3018C4.45946 62.065 5.44594 62.7018 6.52747 63.1877C7.6077 63.6746 8.76435 64.0148 9.95866 64.197C11.1547 64.3712 12.3638 64.4657 13.5758 64.4799C14.1337 64.4908 14.6819 64.497 15.2346 64.497C15.8947 64.5002 16.5487 64.5002 17.2106 64.5002H198.799C199.448 64.5002 200.107 64.5002 200.756 64.497C201.306 64.497 201.87 64.4908 202.42 64.4799C203.63 64.4665 204.836 64.3719 206.03 64.197C207.228 64.0136 208.389 63.6734 209.474 63.1877C210.555 62.7015 211.54 62.0648 212.394 61.3018C213.253 60.5454 213.973 59.6737 214.526 58.7189C215.071 57.7595 215.448 56.7321 215.644 55.672C215.845 54.6132 215.957 53.5426 215.979 52.469C215.986 51.972 215.986 51.4908 215.986 50.994C216 50.4127 216 49.8346 216 49.2439V15.758C216 15.1721 216 14.5908 215.986 14.0112C215.986 13.5205 215.986 13.0283 215.979 12.5377C215.957 11.4641 215.845 10.3934 215.644 9.33451C215.448 8.27506 215.071 7.24821 214.526 6.2892C213.412 4.36452 211.645 2.79785 209.474 1.80952C208.389 1.32512 207.228 0.986993 206.03 0.80632C204.837 0.629972 203.63 0.53542 202.42 0.523504C201.87 0.515696 201.306 0.50632 200.756 0.5032C200.107 0.5 199.448 0.500208 198.799 0.500208Z" fill="white"/>
<path d="M15.2457 63.1004C14.6957 63.1004 14.159 63.0942 13.6134 63.0833C12.483 63.0702 11.3553 62.983 10.2395 62.8223C9.19902 62.6635 8.19111 62.368 7.24897 61.9457C6.31547 61.5268 5.46405 60.9776 4.72731 60.3191C3.97991 59.6684 3.35767 58.9136 2.88524 58.0847C2.4076 57.2505 2.07705 56.3562 1.90509 55.4332C1.7194 54.4414 1.61893 53.4385 1.60455 52.4332C1.59311 52.0958 1.57812 50.9722 1.57812 50.9722V14.0113C1.57812 14.0113 1.59408 12.9051 1.60464 12.5801C1.61841 11.5764 1.71829 10.575 1.90343 9.58476C2.0757 8.65919 2.40651 7.76239 2.88441 6.9254C3.3551 6.0971 3.97389 5.34177 4.71679 4.68868C5.45885 4.02939 6.313 3.47736 7.24809 3.05273C8.18806 2.63174 9.19407 2.33836 10.2324 2.18242C11.3519 2.02013 12.4835 1.93238 13.6178 1.91993L15.2465 1.90039H200.749L202.397 1.92071C203.521 1.93255 204.643 2.01951 205.752 2.18085C206.801 2.33875 207.817 2.63418 208.768 3.05741C210.641 3.91317 212.166 5.26705 213.127 6.9293C213.597 7.76052 213.923 8.65 214.093 9.56757C214.281 10.566 214.385 11.5752 214.407 12.5871C214.412 13.0402 214.412 13.527 214.412 14.0113C214.427 14.6113 214.427 15.1824 214.427 15.7582V49.2441C214.427 49.8254 214.427 50.3926 214.412 50.9644C214.412 51.4847 214.412 51.9614 214.405 52.4519C214.384 53.4458 214.281 54.437 214.097 55.4175C213.928 56.3472 213.6 57.2484 213.122 58.0895C212.646 58.9094 212.028 59.6576 211.289 60.3066C210.551 60.9687 209.698 61.5211 208.763 61.9426C207.815 62.3682 206.8 62.6648 205.752 62.8223C204.636 62.9838 203.508 63.0711 202.378 63.0833C201.849 63.0942 201.296 63.1004 200.758 63.1004L198.801 63.1036L15.2457 63.1004Z" fill="#6460BE"/>
<path d="M51.6288 32.9807C51.646 31.6453 52.0008 30.3359 52.66 29.1743C53.3192 28.0128 54.2616 27.0369 55.3993 26.3374C54.6765 25.3052 53.723 24.4557 52.6145 23.8564C51.506 23.2571 50.273 22.9245 49.0135 22.8851C46.3267 22.6031 43.722 24.4929 42.3528 24.4929C40.9572 24.4929 38.8492 22.9131 36.5792 22.9598C35.1109 23.0073 33.68 23.4342 32.4258 24.1991C31.1716 24.964 30.1369 26.0408 29.4226 27.3244C26.3282 32.6819 28.6363 40.5556 31.6005 44.8862C33.0835 47.0067 34.8168 49.3754 37.0847 49.2914C39.304 49.1994 40.1328 47.8763 42.8117 47.8763C45.4657 47.8763 46.2434 49.2914 48.5573 49.238C50.9387 49.1994 52.4391 47.1081 53.8701 44.9674C54.9357 43.4564 55.7556 41.7865 56.2996 40.0194C54.9161 39.4342 53.7354 38.4547 52.9048 37.2031C52.0742 35.9514 51.6304 34.4829 51.6288 32.9807Z" fill="white"/>
<path d="M47.257 20.0371C48.5554 18.4784 49.1951 16.4749 49.0402 14.4521C47.0565 14.6605 45.2241 15.6086 43.9081 17.1075C43.2647 17.8398 42.7719 18.6917 42.4579 19.6145C42.1439 20.5374 42.0149 21.513 42.0782 22.4857C43.0704 22.496 44.052 22.2809 44.949 21.8568C45.8461 21.4326 46.6352 20.8105 47.257 20.0371Z" fill="white"/>
<path d="M79.6859 43.9233H72.1125L70.2938 49.2936H67.0859L74.2594 29.4248H77.5922L84.7656 49.2936H81.5031L79.6859 43.9233ZM72.8969 41.4452H78.9001L75.9407 32.7295H75.8579L72.8969 41.4452Z" fill="white"/>
<path d="M100.255 42.0513C100.255 46.5529 97.8454 49.4451 94.2094 49.4451C93.2884 49.4932 92.3724 49.2811 91.5663 48.8329C90.7602 48.3846 90.0967 47.7185 89.6516 46.9107H89.5828V54.0857H86.6094V34.8076H89.4875V37.2169H89.5422C90.0078 36.413 90.6825 35.7503 91.4947 35.2993C92.3069 34.8484 93.2262 34.626 94.1547 34.656C97.8312 34.656 100.255 37.5622 100.255 42.0513ZM97.1985 42.0513C97.1985 39.1185 95.6828 37.1904 93.3703 37.1904C91.0985 37.1904 89.5703 39.1591 89.5703 42.0513C89.5703 44.9701 91.0985 46.9248 93.3703 46.9248C95.6829 46.9248 97.1985 45.0107 97.1985 42.0513Z" fill="white"/>
<path d="M116.2 42.0513C116.2 46.5529 113.791 49.445 110.155 49.445C109.234 49.4932 108.318 49.2811 107.512 48.8328C106.706 48.3846 106.042 47.7185 105.597 46.9106H105.528V54.0857H102.555V34.8075H105.433V37.2169H105.487C105.953 36.413 106.628 35.7503 107.44 35.2993C108.252 34.8484 109.171 34.626 110.1 34.656C113.777 34.656 116.2 37.5622 116.2 42.0513ZM113.144 42.0513C113.144 39.1185 111.628 37.1904 109.316 37.1904C107.044 37.1904 105.516 39.1591 105.516 42.0513C105.516 44.9701 107.044 46.9247 109.316 46.9247C111.628 46.9247 113.144 45.0107 113.144 42.0513Z" fill="white"/>
<path d="M126.739 43.7579C126.959 45.7282 128.874 47.0219 131.489 47.0219C133.995 47.0219 135.798 45.7282 135.798 43.9516C135.798 42.4094 134.711 41.486 132.136 40.8531L129.561 40.2328C125.913 39.3516 124.219 37.6453 124.219 34.8766C124.219 31.4484 127.206 29.0938 131.448 29.0938C135.647 29.0938 138.525 31.4484 138.622 34.8766H135.62C135.441 32.8937 133.802 31.6969 131.406 31.6969C129.011 31.6969 127.372 32.9078 127.372 34.6703C127.372 36.075 128.419 36.9016 130.98 37.5343L133.169 38.0718C137.245 39.0359 138.939 40.6734 138.939 43.5796C138.939 47.2968 135.978 49.6249 131.269 49.6249C126.862 49.6249 123.888 47.3515 123.695 43.7577L126.739 43.7579Z" fill="white"/>
<path d="M145.359 31.3799V34.808H148.114V37.1627H145.359V45.1486C145.359 46.3893 145.911 46.9674 147.122 46.9674C147.449 46.9617 147.775 46.9387 148.1 46.8986V49.2392C147.556 49.3409 147.002 49.387 146.448 49.3767C143.516 49.3767 142.372 48.2751 142.372 45.4658V37.1627H140.266V34.808H142.372V31.3799H145.359Z" fill="white"/>
<path d="M149.703 42.0518C149.703 37.4939 152.387 34.6299 156.573 34.6299C160.773 34.6299 163.445 37.4939 163.445 42.0518C163.445 46.6221 160.788 49.4736 156.573 49.4736C152.361 49.4736 149.703 46.6221 149.703 42.0518ZM160.416 42.0518C160.416 38.9252 158.983 37.0799 156.573 37.0799C154.164 37.0799 152.733 38.9393 152.733 42.0518C152.733 45.1908 154.164 47.0221 156.573 47.0221C158.983 47.0221 160.416 45.1908 160.416 42.0518Z" fill="white"/>
<path d="M165.898 34.8074H168.734V37.273H168.803C168.995 36.503 169.446 35.8224 170.081 35.3458C170.715 34.8692 171.495 34.6256 172.288 34.6558C172.63 34.6546 172.972 34.6919 173.306 34.7668V37.548C172.874 37.4158 172.422 37.3552 171.97 37.3683C171.538 37.3508 171.108 37.427 170.708 37.5916C170.308 37.7562 169.949 38.0054 169.654 38.322C169.36 38.6386 169.138 39.0152 169.003 39.4259C168.868 39.8366 168.823 40.2716 168.872 40.7011V49.2933H165.898L165.898 34.8074Z" fill="white"/>
<path d="M187.02 45.0393C186.62 47.6689 184.059 49.4736 180.783 49.4736C176.569 49.4736 173.953 46.6502 173.953 42.1205C173.953 37.5768 176.583 34.6299 180.658 34.6299C184.666 34.6299 187.186 37.383 187.186 41.7752V42.7939H176.955V42.9736C176.907 43.5067 176.974 44.0438 177.151 44.5492C177.327 45.0545 177.609 45.5166 177.977 45.9046C178.346 46.2927 178.793 46.5979 179.288 46.8C179.784 47.0021 180.317 47.0964 180.852 47.0767C181.554 47.1426 182.259 46.9798 182.862 46.6127C183.465 46.2456 183.933 45.6938 184.197 45.0392L187.02 45.0393ZM176.969 40.7158H184.211C184.238 40.2365 184.165 39.7568 183.997 39.3068C183.83 38.8569 183.571 38.4464 183.238 38.1012C182.904 37.756 182.503 37.4834 182.059 37.3007C181.615 37.118 181.138 37.0289 180.658 37.0393C180.174 37.0364 179.694 37.1294 179.246 37.313C178.797 37.4966 178.39 37.7671 178.047 38.1089C177.704 38.4507 177.432 38.8571 177.247 39.3045C177.062 39.7519 176.968 40.2316 176.969 40.7158Z" fill="white"/>
<path d="M67.6357 23.2998V13.4355H71.1973C74.123 13.4355 75.8389 15.2402 75.8389 18.3369V18.3506C75.8389 21.4814 74.1367 23.2998 71.1973 23.2998H67.6357ZM69.167 21.9805H71.0264C73.0908 21.9805 74.2803 20.6611 74.2803 18.3711V18.3574C74.2803 16.0879 73.0703 14.7549 71.0264 14.7549H69.167V21.9805ZM78.5186 14.5498C78.0059 14.5498 77.5889 14.1328 77.5889 13.627C77.5889 13.1143 78.0059 12.6973 78.5186 12.6973C79.0244 12.6973 79.4482 13.1143 79.4482 13.627C79.4482 14.1328 79.0244 14.5498 78.5186 14.5498ZM77.7734 23.2998V15.876H79.25V23.2998H77.7734ZM84.1104 23.4434C82.3193 23.4434 81.1846 22.6025 81.041 21.3584V21.3516H82.5244L82.5312 21.3584C82.7158 21.9189 83.2559 22.2949 84.1377 22.2949C85.0537 22.2949 85.6895 21.8779 85.6895 21.2695V21.2559C85.6895 20.791 85.3408 20.4766 84.4795 20.2783L83.2969 20.0049C81.8955 19.6836 81.2461 19.0479 81.2461 17.9609V17.9541C81.2461 16.6621 82.4492 15.7324 84.1309 15.7324C85.8262 15.7324 86.9131 16.5801 87.043 17.79V17.7969H85.6279V17.7832C85.4844 17.2637 84.958 16.874 84.124 16.874C83.3105 16.874 82.7227 17.2773 82.7227 17.8721V17.8857C82.7227 18.3506 83.0645 18.6377 83.8984 18.8359L85.0742 19.1025C86.5029 19.4375 87.1865 20.0459 87.1865 21.1191V21.1328C87.1865 22.5068 85.874 23.4434 84.1104 23.4434ZM88.957 25.7744V15.876H90.4404V17.0449H90.5498C90.9805 16.2314 91.7939 15.7461 92.833 15.7461C94.7061 15.7461 95.9092 17.2432 95.9092 19.5811V19.5947C95.9092 21.9463 94.7197 23.4229 92.833 23.4229C91.8145 23.4229 90.9463 22.9238 90.5498 22.124H90.4404V25.7744H88.957ZM92.416 22.1582C93.6533 22.1582 94.3984 21.1875 94.3984 19.5947V19.5811C94.3984 17.9814 93.6533 17.0176 92.416 17.0176C91.1787 17.0176 90.4131 17.9951 90.4131 19.5811V19.5947C90.4131 21.1807 91.1787 22.1582 92.416 22.1582ZM100.838 23.4434C98.6572 23.4434 97.3242 21.9873 97.3242 19.5947V19.5811C97.3242 17.1953 98.6641 15.7324 100.838 15.7324C103.005 15.7324 104.345 17.1885 104.345 19.5811V19.5947C104.345 21.9873 103.012 23.4434 100.838 23.4434ZM100.838 22.2061C102.109 22.2061 102.834 21.2354 102.834 19.5947V19.5811C102.834 17.9336 102.109 16.9697 100.838 16.9697C99.5596 16.9697 98.8418 17.9336 98.8418 19.5811V19.5947C98.8418 21.2422 99.5596 22.2061 100.838 22.2061ZM106.115 23.2998V15.876H107.599V17.0039H107.708C108.07 16.2109 108.781 15.7324 109.861 15.7324C111.522 15.7324 112.438 16.7236 112.438 18.4941V23.2998H110.962V18.8428C110.962 17.6123 110.449 17.0039 109.362 17.0039C108.275 17.0039 107.599 17.749 107.599 18.9453V23.2998H106.115ZM115.774 14.8506H114.605L115.809 12.499H117.388L115.774 14.8506ZM114.537 23.2998V15.876H116.014V23.2998H114.537ZM120.218 23.2998L117.531 15.876H119.104L120.956 21.7959H121.072L122.918 15.876H124.477L121.797 23.2998H120.218ZM128.797 23.4434C126.623 23.4434 125.311 21.96 125.311 19.6084V19.6016C125.311 17.2842 126.65 15.7324 128.722 15.7324C130.793 15.7324 132.064 17.2295 132.064 19.458V19.9775H126.801C126.828 21.3994 127.607 22.2266 128.831 22.2266C129.781 22.2266 130.349 21.7549 130.526 21.3721L130.554 21.3174L131.982 21.3105L131.969 21.3721C131.723 22.3496 130.697 23.4434 128.797 23.4434ZM128.729 16.9492C127.717 16.9492 126.951 17.6396 126.821 18.918H130.595C130.479 17.5918 129.733 16.9492 128.729 16.9492ZM133.896 23.2998V12.9639H135.38V23.2998H133.896ZM141.416 23.2998V15.876H142.899V17.0039H143.009C143.371 16.2109 144.082 15.7324 145.162 15.7324C146.823 15.7324 147.739 16.7236 147.739 18.4941V23.2998H146.263V18.8428C146.263 17.6123 145.75 17.0039 144.663 17.0039C143.576 17.0039 142.899 17.749 142.899 18.9453V23.2998H141.416ZM151.848 23.4229C150.433 23.4229 149.387 22.5615 149.387 21.2148V21.2012C149.387 19.875 150.385 19.1025 152.155 18.9932L154.165 18.877V18.2207C154.165 17.4072 153.652 16.9561 152.647 16.9561C151.827 16.9561 151.287 17.2568 151.109 17.7832L151.103 17.8105H149.674L149.681 17.7627C149.858 16.5459 151.027 15.7324 152.716 15.7324C154.582 15.7324 155.635 16.6621 155.635 18.2207V23.2998H154.165V22.2471H154.049C153.611 22.999 152.832 23.4229 151.848 23.4229ZM150.863 21.1533C150.863 21.8369 151.444 22.2402 152.244 22.2402C153.352 22.2402 154.165 21.5156 154.165 20.5586V19.9229L152.354 20.0391C151.328 20.1006 150.863 20.4697 150.863 21.1396V21.1533Z" fill="white"/>
</g>
<defs>
<clipPath id="clip0_1303_9146">
<rect width="216" height="64" fill="white" transform="translate(0 0.5)"/>
</clipPath>
</defs>
</svg>
