<svg width="216" height="65" viewBox="0 0 216 65" fill="none" xmlns="http://www.w3.org/2000/svg">
<g clip-path="url(#clip0_1106_11714)">
<rect width="215.997" height="64" transform="translate(0 0.5)" fill="white"/>
<mask id="mask0_1106_11714" style="mask-type:luminance" maskUnits="userSpaceOnUse" x="0" y="0" width="216" height="65">
<path d="M215.997 0.5H0V64.5H215.997V0.5Z" fill="white"/>
</mask>
<g mask="url(#mask0_1106_11714)">
<mask id="mask1_1106_11714" style="mask-type:luminance" maskUnits="userSpaceOnUse" x="0" y="0" width="216" height="65">
<path d="M215.997 0.5H0V64.5H215.997V0.5Z" fill="white"/>
</mask>
<g mask="url(#mask1_1106_11714)">
<path d="M207.996 1.7806C211.701 1.7806 214.716 4.79654 214.716 8.50125V56.5021C214.716 60.2068 211.701 63.2227 207.996 63.2227H8.00125C4.29654 63.2227 1.2806 60.2068 1.2806 56.5021V8.50125C1.2806 4.79319 4.29319 1.7806 8.00125 1.7806H207.999H207.996ZM207.996 0.5H8.00125C3.60107 0.5 0 4.10107 0 8.50125V56.5021C0 60.9023 3.60107 64.5033 8.00125 64.5033H207.999C212.399 64.5033 216 60.9023 216 56.5021V8.50125C215.997 4.10107 212.396 0.5 207.996 0.5Z" fill="#6460BE"/>
<path d="M109.015 35.2999C105.253 35.2999 102.184 38.162 102.184 42.1075C102.184 46.0529 105.25 48.9117 109.015 48.9117C112.78 48.9117 115.846 46.0229 115.846 42.1075C115.846 38.1921 112.78 35.2999 109.015 35.2999ZM109.015 46.2302C106.952 46.2302 105.173 44.5283 105.173 42.1075C105.173 39.6867 106.952 37.9815 109.015 37.9815C111.078 37.9815 112.853 39.6566 112.853 42.1075C112.853 44.5584 111.075 46.2302 109.015 46.2302ZM94.1125 35.2999C90.3509 35.2999 87.2815 38.162 87.2815 42.1075C87.2815 46.0529 90.3476 48.9117 94.1125 48.9117C97.8774 48.9117 100.943 46.0229 100.943 42.1075C100.943 38.1921 97.874 35.2999 94.1125 35.2999ZM94.1125 46.2302C92.0528 46.2302 90.274 44.5283 90.274 42.1075C90.274 39.6867 92.0528 37.9815 94.1125 37.9815C96.1721 37.9815 97.9543 39.6566 97.9543 42.1075C97.9543 44.5584 96.1755 46.2302 94.1125 46.2302ZM76.388 37.3897V40.2752H83.2959C83.0886 41.9002 82.5503 43.0838 81.7244 43.9097C80.718 44.9161 79.1465 46.0228 76.388 46.0228C72.1349 46.0228 68.808 42.5957 68.808 38.3426C68.808 34.0895 72.1316 30.6623 76.388 30.6623C78.6817 30.6623 80.3569 31.5617 81.594 32.722L83.6302 30.6857C81.9016 29.0373 79.6079 27.7734 76.388 27.7734C70.5634 27.7734 65.665 32.518 65.665 38.3426C65.665 44.1671 70.5634 48.9117 76.388 48.9117C79.531 48.9117 81.9016 47.8786 83.7606 45.9459C85.6665 44.0401 86.2617 41.3585 86.2617 39.1919C86.2617 38.5231 86.2115 37.9046 86.1079 37.3897H76.3913H76.388ZM148.881 39.6299C148.312 38.1085 146.587 35.2999 143.056 35.2999C139.525 35.2999 136.64 38.0584 136.64 42.1075C136.64 45.9225 139.525 48.9117 143.391 48.9117C146.51 48.9117 148.312 47.0059 149.061 45.8958L146.741 44.3477C145.965 45.4812 144.912 46.2302 143.391 46.2302C141.869 46.2302 140.786 45.5347 140.09 44.1705L149.188 40.4056L148.881 39.6332V39.6299ZM139.602 41.9002C139.525 39.2688 141.638 37.9313 143.16 37.9313C144.347 37.9313 145.353 38.5231 145.688 39.3758L139.606 41.9035L139.602 41.9002ZM132.203 48.4971H135.192V28.4957H132.203V48.4971ZM127.304 36.8212H127.201C126.532 36.0221 125.241 35.2999 123.62 35.2999C120.216 35.2999 117.1 38.2891 117.1 42.1309C117.1 45.9727 120.219 48.9084 123.62 48.9084C125.245 48.9084 126.532 48.1862 127.201 47.3603H127.304V48.34C127.304 50.9446 125.914 52.3356 123.67 52.3356C121.841 52.3356 120.704 51.0215 120.243 49.9148L117.638 50.9981C118.384 52.8037 120.37 55.0205 123.67 55.0205C127.174 55.0205 130.14 52.9575 130.14 47.9321V35.7145H127.304V36.8246V36.8212ZM123.877 46.2302C121.814 46.2302 120.089 44.5049 120.089 42.1342C120.089 39.7636 121.814 37.9848 123.877 37.9848C125.94 37.9848 127.512 39.7369 127.512 42.1342C127.512 44.5316 125.914 46.2302 123.877 46.2302ZM162.887 28.499H155.735V48.5005H158.718V40.9238H162.887C166.197 40.9238 169.447 38.5265 169.447 34.7114C169.447 30.8964 166.194 28.499 162.887 28.499ZM162.964 38.1386H158.718V31.2809H162.964C165.198 31.2809 166.465 33.1299 166.465 34.7081C166.465 36.2863 165.198 38.1353 162.964 38.1353M181.414 35.2631C179.254 35.2631 177.014 36.216 176.088 38.3225L178.739 39.4293C179.304 38.3225 180.361 37.9614 181.468 37.9614C183.012 37.9614 184.58 38.8876 184.607 40.5326V40.7399C184.066 40.4323 182.909 39.9676 181.494 39.9676C178.639 39.9676 175.73 41.5357 175.73 44.4714C175.73 47.1496 178.074 48.8716 180.695 48.8716C182.705 48.8716 183.808 47.9722 184.504 46.9156H184.607V48.4603H187.489V40.7901C187.489 37.2392 184.841 35.2598 181.417 35.2598M181.056 46.2201C180.077 46.2201 178.712 45.732 178.712 44.5216C178.712 42.9768 180.411 42.3883 181.879 42.3883C183.19 42.3883 183.808 42.6726 184.607 43.0571C184.376 44.9094 182.782 46.2235 181.056 46.2235M197.988 35.6978L194.564 44.3711H194.461L190.91 35.6978H187.693L193.02 47.8184L189.984 54.5591H193.097L201.305 35.6978H197.985H197.988ZM171.099 48.4938H174.085V28.4923H171.099V48.4938Z" fill="#6460BE"/>
<path d="M33.1485 31.5785L16.1128 49.6574C16.1128 49.6574 16.1128 49.6641 16.1128 49.6675C16.6344 51.6302 18.4266 53.0746 20.5564 53.0746C21.4091 53.0746 22.2048 52.8439 22.8903 52.4427L22.9438 52.4092L42.1194 41.3452L33.1451 31.5752L33.1485 31.5785Z" fill="#6460BE" stroke="white" stroke-width="0.5"/>
<path d="M50.3816 28.4995L50.3648 28.4895L42.0861 23.6914L32.7607 31.9902L42.1195 41.3457L50.3515 36.5944C51.7959 35.812 52.7756 34.2906 52.7756 32.5386C52.7756 30.7865 51.8093 29.2819 50.3782 28.4995" fill="#6460BE"/>
<path d="M50.3816 28.4995L50.3648 28.4895L42.0861 23.6914L32.7607 31.9902L42.1195 41.3457L50.3515 36.5944C51.7959 35.812 52.7756 34.2906 52.7756 32.5386C52.7756 30.7865 51.8093 29.2819 50.3782 28.4995" stroke="white" stroke-width="0.5"/>
<path d="M16.113 15.3418C16.0093 15.7196 15.9558 16.1175 15.9558 16.5254V48.4736C15.9558 48.8815 16.0093 49.2794 16.113 49.6572L33.7304 32.0398L16.1096 15.3418H16.113Z" fill="#6460BE" stroke="white" stroke-width="0.5"/>
<path d="M33.2722 32.5014L42.0893 23.6876L22.9371 12.5835C22.2416 12.1655 21.4291 11.9248 20.5598 11.9248C18.4333 11.9248 16.6377 13.3726 16.1128 15.3386C16.1128 15.3386 16.1128 15.3386 16.1128 15.342L33.2755 32.5014H33.2722Z" fill="#6460BE" stroke="white" stroke-width="0.5"/>
</g>
</g>
<path d="M66.6076 12.476H69.8276C70.6209 12.476 71.3303 12.602 71.9556 12.854C72.5903 13.0967 73.1269 13.4373 73.5656 13.876C74.0136 14.3147 74.3543 14.842 74.5876 15.458C74.8303 16.074 74.9516 16.7507 74.9516 17.488C74.9516 18.2253 74.8303 18.902 74.5876 19.518C74.3543 20.134 74.0136 20.6613 73.5656 21.1C73.1269 21.5387 72.5903 21.884 71.9556 22.136C71.3303 22.3787 70.6209 22.5 69.8276 22.5H66.6076V12.476ZM69.7996 20.988C70.9289 20.988 71.8016 20.68 72.4176 20.064C73.0336 19.448 73.3416 18.5893 73.3416 17.488C73.3416 16.396 73.0336 15.542 72.4176 14.926C71.8016 14.3007 70.9289 13.988 69.7996 13.988H68.1896V20.988H69.7996ZM77.1507 14.422C76.852 14.422 76.6 14.3193 76.3947 14.114C76.1987 13.9087 76.1007 13.6613 76.1007 13.372C76.1007 13.0827 76.1987 12.8353 76.3947 12.63C76.6 12.4247 76.852 12.322 77.1507 12.322C77.44 12.322 77.6827 12.4247 77.8787 12.63C78.084 12.8353 78.1867 13.0827 78.1867 13.372C78.1867 13.6613 78.084 13.9087 77.8787 14.114C77.6827 14.3193 77.44 14.422 77.1507 14.422ZM76.3667 22.5V15.64H77.9207V22.5H76.3667ZM82.2083 22.724C81.7883 22.724 81.4103 22.668 81.0743 22.556C80.7383 22.444 80.4443 22.2993 80.1923 22.122C79.9403 21.9353 79.7256 21.7253 79.5483 21.492C79.3803 21.2587 79.2496 21.016 79.1563 20.764L80.5563 20.176C80.715 20.5773 80.9436 20.876 81.2423 21.072C81.541 21.2587 81.863 21.352 82.2083 21.352C82.6003 21.352 82.9083 21.2727 83.1323 21.114C83.3563 20.9553 83.4683 20.778 83.4683 20.582C83.4683 20.386 83.3843 20.218 83.2163 20.078C83.0483 19.9287 82.731 19.798 82.2643 19.686L81.2843 19.448C81.0696 19.4013 80.8503 19.3313 80.6263 19.238C80.4116 19.1353 80.211 19.0093 80.0243 18.86C79.8376 18.7013 79.6836 18.5147 79.5623 18.3C79.4503 18.076 79.3943 17.8147 79.3943 17.516C79.3943 17.18 79.4643 16.8813 79.6043 16.62C79.7536 16.3587 79.9543 16.1393 80.2063 15.962C80.4583 15.7847 80.7476 15.6493 81.0743 15.556C81.4103 15.4627 81.765 15.416 82.1383 15.416C82.4463 15.416 82.7403 15.4487 83.0203 15.514C83.3096 15.5793 83.5756 15.6773 83.8183 15.808C84.061 15.9387 84.2756 16.1067 84.4623 16.312C84.6583 16.508 84.8123 16.7413 84.9243 17.012L83.5523 17.586C83.4216 17.2873 83.2163 17.0727 82.9363 16.942C82.6563 16.802 82.3716 16.732 82.0823 16.732C81.9516 16.732 81.8163 16.7507 81.6763 16.788C81.5456 16.816 81.4243 16.8627 81.3123 16.928C81.2096 16.984 81.121 17.0587 81.0463 17.152C80.981 17.2453 80.9483 17.348 80.9483 17.46C80.9483 17.6467 81.0276 17.796 81.1863 17.908C81.3543 18.0107 81.6063 18.104 81.9423 18.188L82.9923 18.454C83.7016 18.6313 84.2196 18.902 84.5463 19.266C84.8823 19.6207 85.0503 20.0407 85.0503 20.526C85.0503 20.8247 84.9803 21.1047 84.8403 21.366C84.7096 21.6273 84.5183 21.8607 84.2663 22.066C84.0143 22.2713 83.711 22.43 83.3563 22.542C83.011 22.6633 82.6283 22.724 82.2083 22.724ZM86.0425 15.64H87.5125V16.522H87.5965C87.7831 16.2233 88.0678 15.9667 88.4505 15.752C88.8331 15.528 89.2905 15.416 89.8225 15.416C90.2611 15.416 90.6765 15.5093 91.0685 15.696C91.4698 15.8733 91.8198 16.1253 92.1185 16.452C92.4171 16.7787 92.6551 17.166 92.8325 17.614C93.0098 18.0527 93.0985 18.538 93.0985 19.07C93.0985 19.602 93.0098 20.092 92.8325 20.54C92.6551 20.9787 92.4171 21.3613 92.1185 21.688C91.8198 22.0147 91.4698 22.2713 91.0685 22.458C90.6765 22.6353 90.2611 22.724 89.8225 22.724C89.2905 22.724 88.8331 22.6167 88.4505 22.402C88.0678 22.178 87.7831 21.9167 87.5965 21.618H87.5125L87.5965 22.57V25.524H86.0425V15.64ZM89.5285 21.282C89.7898 21.282 90.0418 21.2307 90.2845 21.128C90.5365 21.0253 90.7511 20.8807 90.9285 20.694C91.1151 20.498 91.2645 20.2647 91.3765 19.994C91.4885 19.7233 91.5445 19.4153 91.5445 19.07C91.5445 18.7247 91.4885 18.4167 91.3765 18.146C91.2645 17.8753 91.1151 17.6467 90.9285 17.46C90.7511 17.264 90.5365 17.1147 90.2845 17.012C90.0418 16.9093 89.7898 16.858 89.5285 16.858C89.2578 16.858 89.0011 16.9093 88.7585 17.012C88.5158 17.1147 88.3011 17.2593 88.1145 17.446C87.9371 17.6327 87.7925 17.866 87.6805 18.146C87.5685 18.4167 87.5125 18.7247 87.5125 19.07C87.5125 19.4153 87.5685 19.728 87.6805 20.008C87.7925 20.2787 87.9371 20.5073 88.1145 20.694C88.3011 20.8807 88.5158 21.0253 88.7585 21.128C89.0011 21.2307 89.2578 21.282 89.5285 21.282ZM97.4662 15.416C97.9889 15.416 98.4696 15.5093 98.9082 15.696C99.3469 15.8733 99.7249 16.1253 100.042 16.452C100.36 16.7787 100.607 17.166 100.784 17.614C100.962 18.062 101.05 18.5473 101.05 19.07C101.05 19.5927 100.962 20.078 100.784 20.526C100.607 20.974 100.36 21.3613 100.042 21.688C99.7249 22.0147 99.3469 22.2713 98.9082 22.458C98.4696 22.6353 97.9889 22.724 97.4662 22.724C96.9436 22.724 96.4629 22.6353 96.0242 22.458C95.5856 22.2713 95.2076 22.0147 94.8902 21.688C94.5729 21.3613 94.3256 20.974 94.1482 20.526C93.9709 20.078 93.8822 19.5927 93.8822 19.07C93.8822 18.5473 93.9709 18.062 94.1482 17.614C94.3256 17.166 94.5729 16.7787 94.8902 16.452C95.2076 16.1253 95.5856 15.8733 96.0242 15.696C96.4629 15.5093 96.9436 15.416 97.4662 15.416ZM97.4662 21.282C97.7276 21.282 97.9796 21.2307 98.2222 21.128C98.4649 21.0253 98.6796 20.8807 98.8662 20.694C99.0622 20.5073 99.2162 20.2787 99.3282 20.008C99.4402 19.728 99.4962 19.4153 99.4962 19.07C99.4962 18.7247 99.4402 18.4167 99.3282 18.146C99.2162 17.866 99.0622 17.6327 98.8662 17.446C98.6796 17.2593 98.4649 17.1147 98.2222 17.012C97.9796 16.9093 97.7276 16.858 97.4662 16.858C97.2049 16.858 96.9529 16.9093 96.7102 17.012C96.4676 17.1147 96.2482 17.2593 96.0522 17.446C95.8656 17.6327 95.7162 17.866 95.6042 18.146C95.4922 18.4167 95.4362 18.7247 95.4362 19.07C95.4362 19.4153 95.4922 19.728 95.6042 20.008C95.7162 20.2787 95.8656 20.5073 96.0522 20.694C96.2482 20.8807 96.4676 21.0253 96.7102 21.128C96.9529 21.2307 97.2049 21.282 97.4662 21.282ZM103.565 16.564H103.649C103.854 16.2373 104.143 15.9667 104.517 15.752C104.899 15.528 105.329 15.416 105.805 15.416C106.673 15.416 107.321 15.6773 107.751 16.2C108.18 16.7133 108.395 17.3993 108.395 18.258V22.5H106.841V18.468C106.841 17.8707 106.701 17.4553 106.421 17.222C106.15 16.9793 105.791 16.858 105.343 16.858C105.072 16.858 104.834 16.914 104.629 17.026C104.423 17.138 104.246 17.292 104.097 17.488C103.947 17.6747 103.835 17.894 103.761 18.146C103.686 18.3887 103.649 18.6453 103.649 18.916V22.5H102.095V15.64H103.565V16.564ZM110.139 14.268L110.797 12.42H112.561L111.441 14.268H110.139ZM110.013 22.5V15.64H111.567V22.5H110.013ZM112.523 15.64H114.273L116.121 20.484H116.191L118.081 15.64H119.789L116.919 22.5H115.365L112.523 15.64ZM126.785 20.862C126.495 21.394 126.085 21.8373 125.553 22.192C125.021 22.5467 124.367 22.724 123.593 22.724C123.079 22.724 122.603 22.6353 122.165 22.458C121.735 22.2713 121.362 22.0147 121.045 21.688C120.727 21.3613 120.48 20.9787 120.303 20.54C120.125 20.092 120.037 19.602 120.037 19.07C120.037 18.5753 120.121 18.1087 120.289 17.67C120.457 17.222 120.69 16.8347 120.989 16.508C121.297 16.172 121.665 15.906 122.095 15.71C122.524 15.514 123 15.416 123.523 15.416C124.055 15.416 124.526 15.5047 124.937 15.682C125.357 15.8593 125.711 16.1067 126.001 16.424C126.29 16.7413 126.509 17.124 126.659 17.572C126.817 18.02 126.897 18.51 126.897 19.042C126.897 19.0887 126.897 19.1307 126.897 19.168C126.887 19.2147 126.883 19.2567 126.883 19.294C126.873 19.3313 126.869 19.3687 126.869 19.406H121.591C121.619 19.7327 121.698 20.0173 121.829 20.26C121.959 20.5027 122.118 20.7033 122.305 20.862C122.501 21.0207 122.715 21.1373 122.949 21.212C123.182 21.2867 123.411 21.324 123.635 21.324C124.083 21.324 124.451 21.2167 124.741 21.002C125.03 20.7873 125.268 20.5213 125.455 20.204L126.785 20.862ZM125.343 18.216C125.324 18.076 125.277 17.922 125.203 17.754C125.137 17.5767 125.03 17.418 124.881 17.278C124.741 17.1287 124.554 17.0027 124.321 16.9C124.097 16.7973 123.821 16.746 123.495 16.746C123.047 16.746 122.659 16.8813 122.333 17.152C122.015 17.4133 121.801 17.768 121.689 18.216H125.343ZM128.071 22.5V12.476H129.625V22.5H128.071ZM135.734 16.564H135.818C136.024 16.2373 136.313 15.9667 136.686 15.752C137.069 15.528 137.498 15.416 137.974 15.416C138.842 15.416 139.491 15.6773 139.92 16.2C140.35 16.7133 140.564 17.3993 140.564 18.258V22.5H139.01V18.468C139.01 17.8707 138.87 17.4553 138.59 17.222C138.32 16.9793 137.96 16.858 137.512 16.858C137.242 16.858 137.004 16.914 136.798 17.026C136.593 17.138 136.416 17.292 136.266 17.488C136.117 17.6747 136.005 17.894 135.93 18.146C135.856 18.3887 135.818 18.6453 135.818 18.916V22.5H134.264V15.64H135.734V16.564ZM145.263 15.416C145.786 15.416 146.266 15.5093 146.705 15.696C147.144 15.8733 147.522 16.1253 147.839 16.452C148.156 16.7787 148.404 17.166 148.581 17.614C148.758 18.062 148.847 18.5473 148.847 19.07C148.847 19.5927 148.758 20.078 148.581 20.526C148.404 20.974 148.156 21.3613 147.839 21.688C147.522 22.0147 147.144 22.2713 146.705 22.458C146.266 22.6353 145.786 22.724 145.263 22.724C144.74 22.724 144.26 22.6353 143.821 22.458C143.382 22.2713 143.004 22.0147 142.687 21.688C142.37 21.3613 142.122 20.974 141.945 20.526C141.768 20.078 141.679 19.5927 141.679 19.07C141.679 18.5473 141.768 18.062 141.945 17.614C142.122 17.166 142.37 16.7787 142.687 16.452C143.004 16.1253 143.382 15.8733 143.821 15.696C144.26 15.5093 144.74 15.416 145.263 15.416ZM145.263 21.282C145.524 21.282 145.776 21.2307 146.019 21.128C146.262 21.0253 146.476 20.8807 146.663 20.694C146.859 20.5073 147.013 20.2787 147.125 20.008C147.237 19.728 147.293 19.4153 147.293 19.07C147.293 18.7247 147.237 18.4167 147.125 18.146C147.013 17.866 146.859 17.6327 146.663 17.446C146.476 17.2593 146.262 17.1147 146.019 17.012C145.776 16.9093 145.524 16.858 145.263 16.858C145.002 16.858 144.75 16.9093 144.507 17.012C144.264 17.1147 144.045 17.2593 143.849 17.446C143.662 17.6327 143.513 17.866 143.401 18.146C143.289 18.4167 143.233 18.7247 143.233 19.07C143.233 19.4153 143.289 19.728 143.401 20.008C143.513 20.2787 143.662 20.5073 143.849 20.694C144.045 20.8807 144.264 21.0253 144.507 21.128C144.75 21.2307 145.002 21.282 145.263 21.282Z" fill="#6460BE"/>
</g>
<defs>
<clipPath id="clip0_1106_11714">
<rect width="215.997" height="64" fill="white" transform="translate(0 0.5)"/>
</clipPath>
</defs>
</svg>
