<svg width="216" height="65" viewBox="0 0 216 65" fill="none" xmlns="http://www.w3.org/2000/svg">
<g clip-path="url(#clip0_1303_9129)">
<rect y="0.5" width="215.997" height="64" rx="8" fill="#6460BE"/>
<mask id="mask0_1303_9129" style="mask-type:luminance" maskUnits="userSpaceOnUse" x="0" y="0" width="216" height="65">
<path d="M215.997 0.5H0V64.5H215.997V0.5Z" fill="white"/>
</mask>
<g mask="url(#mask0_1303_9129)">
<mask id="mask1_1303_9129" style="mask-type:luminance" maskUnits="userSpaceOnUse" x="0" y="0" width="216" height="65">
<path d="M215.997 0.5H0V64.5H215.997V0.5Z" fill="white"/>
</mask>
<g mask="url(#mask1_1303_9129)">
<path d="M207.996 1.7806C211.701 1.7806 214.716 4.79654 214.716 8.50125V56.5021C214.716 60.2068 211.701 63.2227 207.996 63.2227H8.00125C4.29654 63.2227 1.2806 60.2068 1.2806 56.5021V8.50125C1.2806 4.79319 4.29319 1.7806 8.00125 1.7806H207.999H207.996ZM207.996 0.5H8.00125C3.60107 0.5 0 4.10107 0 8.50125V56.5021C0 60.9023 3.60107 64.5033 8.00125 64.5033H207.999C212.399 64.5033 216 60.9023 216 56.5021V8.50125C215.997 4.10107 212.396 0.5 207.996 0.5Z" fill="white"/>
<path d="M109.014 35.2999C105.252 35.2999 102.183 38.162 102.183 42.1075C102.183 46.0529 105.249 48.9117 109.014 48.9117C112.779 48.9117 115.845 46.0229 115.845 42.1075C115.845 38.1921 112.779 35.2999 109.014 35.2999ZM109.014 46.2302C106.951 46.2302 105.172 44.5283 105.172 42.1075C105.172 39.6867 106.951 37.9815 109.014 37.9815C111.077 37.9815 112.852 39.6566 112.852 42.1075C112.852 44.5584 111.074 46.2302 109.014 46.2302ZM94.1115 35.2999C90.3499 35.2999 87.2805 38.162 87.2805 42.1075C87.2805 46.0529 90.3466 48.9117 94.1115 48.9117C97.8764 48.9117 100.942 46.0229 100.942 42.1075C100.942 38.1921 97.873 35.2999 94.1115 35.2999ZM94.1115 46.2302C92.0518 46.2302 90.273 44.5283 90.273 42.1075C90.273 39.6867 92.0518 37.9815 94.1115 37.9815C96.1711 37.9815 97.9533 39.6566 97.9533 42.1075C97.9533 44.5584 96.1745 46.2302 94.1115 46.2302ZM76.387 37.3897V40.2752H83.2949C83.0876 41.9002 82.5493 43.0838 81.7234 43.9097C80.717 44.9161 79.1455 46.0228 76.387 46.0228C72.1339 46.0228 68.8071 42.5957 68.8071 38.3426C68.8071 34.0895 72.1306 30.6623 76.387 30.6623C78.6807 30.6623 80.3559 31.5617 81.593 32.722L83.6293 30.6857C81.9006 29.0373 79.6069 27.7734 76.387 27.7734C70.5625 27.7734 65.6641 32.518 65.6641 38.3426C65.6641 44.1671 70.5625 48.9117 76.387 48.9117C79.53 48.9117 81.9006 47.8786 83.7597 45.9459C85.6655 44.0401 86.2607 41.3585 86.2607 39.1919C86.2607 38.5231 86.2105 37.9046 86.1069 37.3897H76.3904H76.387ZM148.88 39.6299C148.311 38.1085 146.586 35.2999 143.055 35.2999C139.524 35.2999 136.639 38.0584 136.639 42.1075C136.639 45.9225 139.524 48.9117 143.39 48.9117C146.509 48.9117 148.311 47.0059 149.06 45.8958L146.74 44.3477C145.964 45.4812 144.911 46.2302 143.39 46.2302C141.868 46.2302 140.785 45.5347 140.089 44.1705L149.187 40.4056L148.88 39.6332V39.6299ZM139.601 41.9002C139.524 39.2688 141.638 37.9313 143.159 37.9313C144.346 37.9313 145.352 38.5231 145.687 39.3758L139.605 41.9035L139.601 41.9002ZM132.202 48.4971H135.191V28.4957H132.202V48.4971ZM127.303 36.8212H127.2C126.531 36.0221 125.24 35.2999 123.619 35.2999C120.215 35.2999 117.099 38.2891 117.099 42.1309C117.099 45.9727 120.218 48.9084 123.619 48.9084C125.244 48.9084 126.531 48.1862 127.2 47.3603H127.303V48.34C127.303 50.9446 125.913 52.3356 123.669 52.3356C121.84 52.3356 120.703 51.0215 120.242 49.9148L117.637 50.9981C118.383 52.8037 120.369 55.0205 123.669 55.0205C127.173 55.0205 130.139 52.9575 130.139 47.9321V35.7145H127.303V36.8246V36.8212ZM123.876 46.2302C121.813 46.2302 120.088 44.5049 120.088 42.1342C120.088 39.7636 121.813 37.9848 123.876 37.9848C125.939 37.9848 127.511 39.7369 127.511 42.1342C127.511 44.5316 125.913 46.2302 123.876 46.2302ZM162.886 28.499H155.734V48.5005H158.717V40.9238H162.886C166.196 40.9238 169.446 38.5265 169.446 34.7114C169.446 30.8964 166.193 28.499 162.886 28.499ZM162.963 38.1386H158.717V31.2809H162.963C165.197 31.2809 166.464 33.1299 166.464 34.7081C166.464 36.2863 165.197 38.1353 162.963 38.1353M181.413 35.2631C179.253 35.2631 177.013 36.216 176.087 38.3225L178.738 39.4293C179.303 38.3225 180.36 37.9614 181.467 37.9614C183.011 37.9614 184.579 38.8876 184.606 40.5326V40.7399C184.065 40.4323 182.908 39.9676 181.493 39.9676C178.638 39.9676 175.729 41.5357 175.729 44.4714C175.729 47.1496 178.073 48.8716 180.694 48.8716C182.704 48.8716 183.807 47.9722 184.503 46.9156H184.606V48.4603H187.488V40.7901C187.488 37.2392 184.84 35.2598 181.416 35.2598M181.055 46.2201C180.076 46.2201 178.711 45.732 178.711 44.5216C178.711 42.9768 180.41 42.3883 181.878 42.3883C183.189 42.3883 183.807 42.6726 184.606 43.0571C184.376 44.9094 182.781 46.2235 181.055 46.2235M197.987 35.6978L194.563 44.3711H194.46L190.909 35.6978H187.692L193.019 47.8184L189.983 54.5591H193.096L201.304 35.6978H197.984H197.987ZM171.098 48.4938H174.084V28.4923H171.098V48.4938Z" fill="white"/>
<path d="M33.1451 31.5785L16.1094 49.6574C16.1094 49.6574 16.1094 49.6641 16.1094 49.6675C16.631 51.6302 18.4232 53.0746 20.553 53.0746C21.4057 53.0746 22.2014 52.8439 22.8869 52.4427L22.9404 52.4092L42.116 41.3452L33.1417 31.5752L33.1451 31.5785Z" fill="white" stroke="#6460BE" stroke-width="0.5"/>
<path d="M50.3786 28.4995L50.3619 28.4895L42.0831 23.6914L32.7578 31.9902L42.1166 41.3457L50.3485 36.5944C51.793 35.812 52.7726 34.2906 52.7726 32.5386C52.7726 30.7865 51.8063 29.2819 50.3753 28.4995" fill="white"/>
<path d="M50.3786 28.4995L50.3619 28.4895L42.0831 23.6914L32.7578 31.9902L42.1166 41.3457L50.3485 36.5944C51.793 35.812 52.7726 34.2906 52.7726 32.5386C52.7726 30.7865 51.8063 29.2819 50.3753 28.4995" stroke="#6460BE" stroke-width="0.5"/>
<path d="M16.1103 15.3418C16.0066 15.7196 15.9531 16.1175 15.9531 16.5254V48.4736C15.9531 48.8815 16.0066 49.2794 16.1103 49.6572L33.7277 32.0398L16.1069 15.3418H16.1103Z" fill="white" stroke="#6460BE" stroke-width="0.5"/>
<path d="M33.2688 32.5014L42.0859 23.6876L22.9337 12.5835C22.2382 12.1655 21.4257 11.9248 20.5564 11.9248C18.4298 11.9248 16.6343 13.3726 16.1094 15.3386C16.1094 15.3386 16.1094 15.3386 16.1094 15.342L33.2721 32.5014H33.2688Z" fill="white" stroke="#6460BE" stroke-width="0.5"/>
</g>
</g>
<path d="M66.6096 12.476H69.8296C70.6229 12.476 71.3322 12.602 71.9576 12.854C72.5922 13.0967 73.1289 13.4373 73.5676 13.876C74.0156 14.3147 74.3562 14.842 74.5896 15.458C74.8322 16.074 74.9536 16.7507 74.9536 17.488C74.9536 18.2253 74.8322 18.902 74.5896 19.518C74.3562 20.134 74.0156 20.6613 73.5676 21.1C73.1289 21.5387 72.5922 21.884 71.9576 22.136C71.3322 22.3787 70.6229 22.5 69.8296 22.5H66.6096V12.476ZM69.8016 20.988C70.9309 20.988 71.8036 20.68 72.4196 20.064C73.0356 19.448 73.3436 18.5893 73.3436 17.488C73.3436 16.396 73.0356 15.542 72.4196 14.926C71.8036 14.3007 70.9309 13.988 69.8016 13.988H68.1916V20.988H69.8016ZM77.1527 14.422C76.854 14.422 76.602 14.3193 76.3967 14.114C76.2007 13.9087 76.1027 13.6613 76.1027 13.372C76.1027 13.0827 76.2007 12.8353 76.3967 12.63C76.602 12.4247 76.854 12.322 77.1527 12.322C77.442 12.322 77.6847 12.4247 77.8807 12.63C78.086 12.8353 78.1887 13.0827 78.1887 13.372C78.1887 13.6613 78.086 13.9087 77.8807 14.114C77.6847 14.3193 77.442 14.422 77.1527 14.422ZM76.3687 22.5V15.64H77.9227V22.5H76.3687ZM82.2103 22.724C81.7903 22.724 81.4123 22.668 81.0763 22.556C80.7403 22.444 80.4463 22.2993 80.1943 22.122C79.9423 21.9353 79.7276 21.7253 79.5503 21.492C79.3823 21.2587 79.2516 21.016 79.1583 20.764L80.5583 20.176C80.7169 20.5773 80.9456 20.876 81.2443 21.072C81.5429 21.2587 81.8649 21.352 82.2103 21.352C82.6023 21.352 82.9103 21.2727 83.1343 21.114C83.3583 20.9553 83.4703 20.778 83.4703 20.582C83.4703 20.386 83.3863 20.218 83.2183 20.078C83.0503 19.9287 82.7329 19.798 82.2663 19.686L81.2863 19.448C81.0716 19.4013 80.8523 19.3313 80.6283 19.238C80.4136 19.1353 80.2129 19.0093 80.0263 18.86C79.8396 18.7013 79.6856 18.5147 79.5643 18.3C79.4523 18.076 79.3963 17.8147 79.3963 17.516C79.3963 17.18 79.4663 16.8813 79.6063 16.62C79.7556 16.3587 79.9563 16.1393 80.2083 15.962C80.4603 15.7847 80.7496 15.6493 81.0763 15.556C81.4123 15.4627 81.7669 15.416 82.1403 15.416C82.4483 15.416 82.7423 15.4487 83.0223 15.514C83.3116 15.5793 83.5776 15.6773 83.8203 15.808C84.0629 15.9387 84.2776 16.1067 84.4643 16.312C84.6603 16.508 84.8143 16.7413 84.9263 17.012L83.5543 17.586C83.4236 17.2873 83.2183 17.0727 82.9383 16.942C82.6583 16.802 82.3736 16.732 82.0843 16.732C81.9536 16.732 81.8183 16.7507 81.6783 16.788C81.5476 16.816 81.4263 16.8627 81.3143 16.928C81.2116 16.984 81.1229 17.0587 81.0483 17.152C80.9829 17.2453 80.9503 17.348 80.9503 17.46C80.9503 17.6467 81.0296 17.796 81.1883 17.908C81.3563 18.0107 81.6083 18.104 81.9443 18.188L82.9943 18.454C83.7036 18.6313 84.2216 18.902 84.5483 19.266C84.8843 19.6207 85.0523 20.0407 85.0523 20.526C85.0523 20.8247 84.9823 21.1047 84.8423 21.366C84.7116 21.6273 84.5203 21.8607 84.2683 22.066C84.0163 22.2713 83.7129 22.43 83.3583 22.542C83.0129 22.6633 82.6303 22.724 82.2103 22.724ZM86.0444 15.64H87.5144V16.522H87.5984C87.7851 16.2233 88.0697 15.9667 88.4524 15.752C88.8351 15.528 89.2924 15.416 89.8244 15.416C90.2631 15.416 90.6784 15.5093 91.0704 15.696C91.4717 15.8733 91.8217 16.1253 92.1204 16.452C92.4191 16.7787 92.6571 17.166 92.8344 17.614C93.0117 18.0527 93.1004 18.538 93.1004 19.07C93.1004 19.602 93.0117 20.092 92.8344 20.54C92.6571 20.9787 92.4191 21.3613 92.1204 21.688C91.8217 22.0147 91.4717 22.2713 91.0704 22.458C90.6784 22.6353 90.2631 22.724 89.8244 22.724C89.2924 22.724 88.8351 22.6167 88.4524 22.402C88.0697 22.178 87.7851 21.9167 87.5984 21.618H87.5144L87.5984 22.57V25.524H86.0444V15.64ZM89.5304 21.282C89.7917 21.282 90.0437 21.2307 90.2864 21.128C90.5384 21.0253 90.7531 20.8807 90.9304 20.694C91.1171 20.498 91.2664 20.2647 91.3784 19.994C91.4904 19.7233 91.5464 19.4153 91.5464 19.07C91.5464 18.7247 91.4904 18.4167 91.3784 18.146C91.2664 17.8753 91.1171 17.6467 90.9304 17.46C90.7531 17.264 90.5384 17.1147 90.2864 17.012C90.0437 16.9093 89.7917 16.858 89.5304 16.858C89.2597 16.858 89.0031 16.9093 88.7604 17.012C88.5177 17.1147 88.3031 17.2593 88.1164 17.446C87.9391 17.6327 87.7944 17.866 87.6824 18.146C87.5704 18.4167 87.5144 18.7247 87.5144 19.07C87.5144 19.4153 87.5704 19.728 87.6824 20.008C87.7944 20.2787 87.9391 20.5073 88.1164 20.694C88.3031 20.8807 88.5177 21.0253 88.7604 21.128C89.0031 21.2307 89.2597 21.282 89.5304 21.282ZM97.4682 15.416C97.9909 15.416 98.4715 15.5093 98.9102 15.696C99.3489 15.8733 99.7269 16.1253 100.044 16.452C100.362 16.7787 100.609 17.166 100.786 17.614C100.964 18.062 101.052 18.5473 101.052 19.07C101.052 19.5927 100.964 20.078 100.786 20.526C100.609 20.974 100.362 21.3613 100.044 21.688C99.7269 22.0147 99.3489 22.2713 98.9102 22.458C98.4715 22.6353 97.9909 22.724 97.4682 22.724C96.9455 22.724 96.4649 22.6353 96.0262 22.458C95.5875 22.2713 95.2095 22.0147 94.8922 21.688C94.5749 21.3613 94.3275 20.974 94.1502 20.526C93.9729 20.078 93.8842 19.5927 93.8842 19.07C93.8842 18.5473 93.9729 18.062 94.1502 17.614C94.3275 17.166 94.5749 16.7787 94.8922 16.452C95.2095 16.1253 95.5875 15.8733 96.0262 15.696C96.4649 15.5093 96.9455 15.416 97.4682 15.416ZM97.4682 21.282C97.7295 21.282 97.9815 21.2307 98.2242 21.128C98.4669 21.0253 98.6815 20.8807 98.8682 20.694C99.0642 20.5073 99.2182 20.2787 99.3302 20.008C99.4422 19.728 99.4982 19.4153 99.4982 19.07C99.4982 18.7247 99.4422 18.4167 99.3302 18.146C99.2182 17.866 99.0642 17.6327 98.8682 17.446C98.6815 17.2593 98.4669 17.1147 98.2242 17.012C97.9815 16.9093 97.7295 16.858 97.4682 16.858C97.2069 16.858 96.9549 16.9093 96.7122 17.012C96.4695 17.1147 96.2502 17.2593 96.0542 17.446C95.8675 17.6327 95.7182 17.866 95.6062 18.146C95.4942 18.4167 95.4382 18.7247 95.4382 19.07C95.4382 19.4153 95.4942 19.728 95.6062 20.008C95.7182 20.2787 95.8675 20.5073 96.0542 20.694C96.2502 20.8807 96.4695 21.0253 96.7122 21.128C96.9549 21.2307 97.2069 21.282 97.4682 21.282ZM103.567 16.564H103.651C103.856 16.2373 104.145 15.9667 104.519 15.752C104.901 15.528 105.331 15.416 105.807 15.416C106.675 15.416 107.323 15.6773 107.753 16.2C108.182 16.7133 108.397 17.3993 108.397 18.258V22.5H106.843V18.468C106.843 17.8707 106.703 17.4553 106.423 17.222C106.152 16.9793 105.793 16.858 105.345 16.858C105.074 16.858 104.836 16.914 104.631 17.026C104.425 17.138 104.248 17.292 104.099 17.488C103.949 17.6747 103.837 17.894 103.763 18.146C103.688 18.3887 103.651 18.6453 103.651 18.916V22.5H102.097V15.64H103.567V16.564ZM110.141 14.268L110.799 12.42H112.563L111.443 14.268H110.141ZM110.015 22.5V15.64H111.569V22.5H110.015ZM112.525 15.64H114.275L116.123 20.484H116.193L118.083 15.64H119.791L116.921 22.5H115.367L112.525 15.64ZM126.786 20.862C126.497 21.394 126.086 21.8373 125.554 22.192C125.022 22.5467 124.369 22.724 123.594 22.724C123.081 22.724 122.605 22.6353 122.166 22.458C121.737 22.2713 121.364 22.0147 121.046 21.688C120.729 21.3613 120.482 20.9787 120.304 20.54C120.127 20.092 120.038 19.602 120.038 19.07C120.038 18.5753 120.122 18.1087 120.29 17.67C120.458 17.222 120.692 16.8347 120.99 16.508C121.298 16.172 121.667 15.906 122.096 15.71C122.526 15.514 123.002 15.416 123.524 15.416C124.056 15.416 124.528 15.5047 124.938 15.682C125.358 15.8593 125.713 16.1067 126.002 16.424C126.292 16.7413 126.511 17.124 126.66 17.572C126.819 18.02 126.898 18.51 126.898 19.042C126.898 19.0887 126.898 19.1307 126.898 19.168C126.889 19.2147 126.884 19.2567 126.884 19.294C126.875 19.3313 126.87 19.3687 126.87 19.406H121.592C121.62 19.7327 121.7 20.0173 121.83 20.26C121.961 20.5027 122.12 20.7033 122.306 20.862C122.502 21.0207 122.717 21.1373 122.95 21.212C123.184 21.2867 123.412 21.324 123.636 21.324C124.084 21.324 124.453 21.2167 124.742 21.002C125.032 20.7873 125.27 20.5213 125.456 20.204L126.786 20.862ZM125.344 18.216C125.326 18.076 125.279 17.922 125.204 17.754C125.139 17.5767 125.032 17.418 124.882 17.278C124.742 17.1287 124.556 17.0027 124.322 16.9C124.098 16.7973 123.823 16.746 123.496 16.746C123.048 16.746 122.661 16.8813 122.334 17.152C122.017 17.4133 121.802 17.768 121.69 18.216H125.344ZM128.073 22.5V12.476H129.627V22.5H128.073ZM135.736 16.564H135.82C136.026 16.2373 136.315 15.9667 136.688 15.752C137.071 15.528 137.5 15.416 137.976 15.416C138.844 15.416 139.493 15.6773 139.922 16.2C140.352 16.7133 140.566 17.3993 140.566 18.258V22.5H139.012V18.468C139.012 17.8707 138.872 17.4553 138.592 17.222C138.322 16.9793 137.962 16.858 137.514 16.858C137.244 16.858 137.006 16.914 136.8 17.026C136.595 17.138 136.418 17.292 136.268 17.488C136.119 17.6747 136.007 17.894 135.932 18.146C135.858 18.3887 135.82 18.6453 135.82 18.916V22.5H134.266V15.64H135.736V16.564ZM145.265 15.416C145.788 15.416 146.268 15.5093 146.707 15.696C147.146 15.8733 147.524 16.1253 147.841 16.452C148.158 16.7787 148.406 17.166 148.583 17.614C148.76 18.062 148.849 18.5473 148.849 19.07C148.849 19.5927 148.76 20.078 148.583 20.526C148.406 20.974 148.158 21.3613 147.841 21.688C147.524 22.0147 147.146 22.2713 146.707 22.458C146.268 22.6353 145.788 22.724 145.265 22.724C144.742 22.724 144.262 22.6353 143.823 22.458C143.384 22.2713 143.006 22.0147 142.689 21.688C142.372 21.3613 142.124 20.974 141.947 20.526C141.77 20.078 141.681 19.5927 141.681 19.07C141.681 18.5473 141.77 18.062 141.947 17.614C142.124 17.166 142.372 16.7787 142.689 16.452C143.006 16.1253 143.384 15.8733 143.823 15.696C144.262 15.5093 144.742 15.416 145.265 15.416ZM145.265 21.282C145.526 21.282 145.778 21.2307 146.021 21.128C146.264 21.0253 146.478 20.8807 146.665 20.694C146.861 20.5073 147.015 20.2787 147.127 20.008C147.239 19.728 147.295 19.4153 147.295 19.07C147.295 18.7247 147.239 18.4167 147.127 18.146C147.015 17.866 146.861 17.6327 146.665 17.446C146.478 17.2593 146.264 17.1147 146.021 17.012C145.778 16.9093 145.526 16.858 145.265 16.858C145.004 16.858 144.752 16.9093 144.509 17.012C144.266 17.1147 144.047 17.2593 143.851 17.446C143.664 17.6327 143.515 17.866 143.403 18.146C143.291 18.4167 143.235 18.7247 143.235 19.07C143.235 19.4153 143.291 19.728 143.403 20.008C143.515 20.2787 143.664 20.5073 143.851 20.694C144.047 20.8807 144.266 21.0253 144.509 21.128C144.752 21.2307 145.004 21.282 145.265 21.282Z" fill="white"/>
</g>
<defs>
<clipPath id="clip0_1303_9129">
<rect y="0.5" width="215.997" height="64" rx="8" fill="white"/>
</clipPath>
</defs>
</svg>
