<svg width="58" height="75" viewBox="0 0 58 75" fill="none" xmlns="http://www.w3.org/2000/svg">
<g filter="url(#filter0_f_1282_11227)">
<path d="M31.744 73.288C29.376 73.288 27.264 72.904 25.408 72.136C23.552 71.368 21.888 70.536 20.416 69.64C19.008 68.744 17.728 67.912 16.576 67.144C15.424 66.376 14.304 65.992 13.216 65.992C12.384 65.992 11.744 66.248 11.296 66.76C10.848 67.272 10.624 67.88 10.624 68.584C10.624 69.608 10.272 70.6 9.568 71.56C8.864 72.52 7.68 73 6.016 73C4.736 73 3.648 72.616 2.752 71.848C1.792 71.016 1.312 69.544 1.312 67.432C1.312 66.344 1.472 65.064 1.792 63.592C2.112 62.12 2.72 60.552 3.616 58.888C4.448 57.224 5.632 55.56 7.168 53.896C8.768 52.168 10.816 50.568 13.312 49.096C17.664 46.6 21.376 44.328 24.448 42.28C27.584 40.168 30.176 38.184 32.224 36.328C34.272 34.472 35.776 32.712 36.736 31.048C37.696 29.32 38.176 27.56 38.176 25.768C38.176 24.04 37.696 22.6 36.736 21.448C35.84 20.232 34.368 19.624 32.32 19.624C30.4 19.624 28.64 20.168 27.04 21.256C25.504 22.344 24.448 23.72 23.872 25.384C23.488 26.472 22.944 27.304 22.24 27.88C21.6 28.392 20.928 28.648 20.224 28.648C19.648 28.648 19.104 28.52 18.592 28.264C18.08 27.944 17.632 27.464 17.248 26.824C16.928 26.184 16.736 25.352 16.672 24.328C16.608 23.304 16.736 22.056 17.056 20.584C17.696 17.832 18.656 15.304 19.936 13C21.28 10.632 22.88 8.584 24.736 6.856C26.592 5.128 28.704 3.784 31.072 2.824C33.504 1.864 36.128 1.384 38.944 1.384C44.128 1.384 48.32 2.856 51.52 5.8C54.72 8.68 56.32 12.712 56.32 17.896C56.32 21.16 55.68 24.168 54.4 26.92C53.12 29.608 51.424 32.072 49.312 34.312C47.264 36.552 44.96 38.6 42.4 40.456C39.84 42.248 37.312 43.912 34.816 45.448C32.32 46.92 29.952 48.264 27.712 49.48C25.536 50.696 23.744 51.848 22.336 52.936C21.888 53.32 21.6 53.768 21.472 54.28C21.408 54.728 21.472 55.144 21.664 55.528C21.856 55.848 22.144 56.04 22.528 56.104C22.976 56.104 23.424 55.88 23.872 55.432C25.088 54.152 26.432 53.096 27.904 52.264C29.44 51.432 31.328 51.016 33.568 51.016C35.488 51.016 37.056 51.272 38.272 51.784C39.552 52.232 40.64 52.616 41.536 52.936C42.432 53.192 43.264 53.192 44.032 52.936C44.8 52.616 45.696 51.688 46.72 50.152C46.976 49.768 47.328 49.512 47.776 49.384C48.288 49.256 48.736 49.256 49.12 49.384C49.568 49.512 49.92 49.768 50.176 50.152C50.432 50.536 50.464 51.016 50.272 51.592C49.184 55.624 48 59.016 46.72 61.768C45.44 64.52 44.032 66.76 42.496 68.488C40.96 70.152 39.296 71.368 37.504 72.136C35.712 72.904 33.792 73.288 31.744 73.288Z" fill="url(#paint0_linear_1282_11227)"/>
</g>
<defs>
<filter id="filter0_f_1282_11227" x="0.312012" y="0.384766" width="57.0078" height="73.9023" filterUnits="userSpaceOnUse" color-interpolation-filters="sRGB">
<feFlood flood-opacity="0" result="BackgroundImageFix"/>
<feBlend mode="normal" in="SourceGraphic" in2="BackgroundImageFix" result="shape"/>
<feGaussianBlur stdDeviation="0.5" result="effect1_foregroundBlur_1282_11227"/>
</filter>
<linearGradient id="paint0_linear_1282_11227" x1="28" y1="-15" x2="28" y2="124" gradientUnits="userSpaceOnUse">
<stop stop-color="#6460BE"/>
<stop offset="0.490385" stop-color="#6460BE"/>
<stop offset="0.682692" stop-color="white"/>
<stop offset="1" stop-color="white"/>
</linearGradient>
</defs>
</svg>
