<svg width="55" height="75" viewBox="0 0 55 75" fill="none" xmlns="http://www.w3.org/2000/svg">
<g filter="url(#filter0_f_1282_11231)">
<path d="M21.5599 73.192C17.9759 73.192 14.9359 72.712 12.4399 71.752C9.94388 70.728 7.89588 69.448 6.29588 67.912C4.69588 66.312 3.54388 64.52 2.83987 62.536C2.13588 60.488 1.78388 58.44 1.78388 56.392C1.78388 54.472 2.03988 52.648 2.55188 50.92C3.12788 49.128 3.89588 47.56 4.85588 46.216C5.87988 44.808 7.06388 43.688 8.40788 42.856C9.75188 42.024 11.1919 41.608 12.7279 41.608C14.5839 41.608 15.5119 42.248 15.5119 43.528C15.5119 43.976 15.3839 44.52 15.1279 45.16C14.9359 45.736 14.8399 46.568 14.8399 47.656C14.8399 49.64 15.4799 51.208 16.7599 52.36C18.1039 53.512 19.9279 54.088 22.2319 54.088C23.5119 54.088 24.6959 53.896 25.7839 53.512C26.8719 53.064 27.7999 52.488 28.5679 51.784C29.3999 51.016 30.0399 50.152 30.4879 49.192C30.9359 48.168 31.1599 47.08 31.1599 45.928C31.1599 44.136 30.5519 42.728 29.3359 41.704C28.1839 40.616 26.6799 40.072 24.8239 40.072C23.5439 40.072 22.5199 39.784 21.7519 39.208C20.9839 38.568 20.5999 37.704 20.5999 36.616C20.5999 35.592 20.9839 34.728 21.7519 34.024C22.5199 33.32 23.5759 32.968 24.9199 32.968C28.1839 32.968 30.8399 32.232 32.8879 30.76C34.9359 29.224 35.9599 27.24 35.9599 24.808C35.9599 22.888 35.3839 21.384 34.2319 20.296C33.0799 19.208 31.4799 18.664 29.4319 18.664C27.3839 18.664 25.5919 19.24 24.0559 20.392C22.5199 21.544 21.3999 23.208 20.6959 25.384C20.3759 26.408 19.8639 27.208 19.1599 27.784C18.5199 28.36 17.8159 28.648 17.0479 28.648C15.9599 28.648 15.0959 28.168 14.4559 27.208C13.8159 26.184 13.4959 24.808 13.4959 23.08C13.4959 20.136 14.0719 17.352 15.2239 14.728C16.4399 12.104 18.0399 9.8 20.0239 7.816C22.0719 5.832 24.4399 4.264 27.1279 3.112C29.8799 1.96 32.7599 1.384 35.7679 1.384C41.0159 1.384 45.2079 2.792 48.3439 5.608C51.5439 8.424 53.1439 12.168 53.1439 16.84C53.1439 18.952 52.7599 20.968 51.9919 22.888C51.2239 24.808 50.1359 26.536 48.7279 28.072C47.3199 29.608 45.6239 30.952 43.6399 32.104C41.7199 33.192 39.5759 33.992 37.2079 34.504C35.7999 34.824 35.0959 35.4 35.0959 36.232C35.0959 36.872 35.6399 37.352 36.7279 37.672C39.5439 38.376 41.7199 39.944 43.2559 42.376C44.7919 44.808 45.5599 47.752 45.5599 51.208C45.5599 54.536 44.9519 57.544 43.7359 60.232C42.5839 62.92 40.9199 65.224 38.7439 67.144C36.6319 69.064 34.1039 70.568 31.1599 71.656C28.2159 72.68 25.0159 73.192 21.5599 73.192Z" fill="url(#paint0_linear_1282_11231)"/>
</g>
<defs>
<filter id="filter0_f_1282_11231" x="0.783691" y="0.384766" width="53.3604" height="73.8066" filterUnits="userSpaceOnUse" color-interpolation-filters="sRGB">
<feFlood flood-opacity="0" result="BackgroundImageFix"/>
<feBlend mode="normal" in="SourceGraphic" in2="BackgroundImageFix" result="shape"/>
<feGaussianBlur stdDeviation="0.5" result="effect1_foregroundBlur_1282_11231"/>
</filter>
<linearGradient id="paint0_linear_1282_11231" x1="24" y1="-15" x2="24" y2="124" gradientUnits="userSpaceOnUse">
<stop stop-color="#6460BE"/>
<stop offset="0.490385" stop-color="#6460BE"/>
<stop offset="0.682692" stop-color="white"/>
<stop offset="1" stop-color="white"/>
</linearGradient>
</defs>
</svg>
