<svg width="54" height="75" viewBox="0 0 54 75" fill="none" xmlns="http://www.w3.org/2000/svg">
<g filter="url(#filter0_f_1356_9302)">
<path d="M48.4404 40.592C49.4004 39.824 50.3284 39.536 51.2244 39.728C52.1204 39.92 52.5684 40.944 52.5684 42.8C52.5684 43.76 52.4084 45.072 52.0884 46.736C51.7684 48.4 51.1284 50.032 50.1684 51.632C49.2724 53.232 47.9924 54.64 46.3284 55.856C44.6644 57.008 42.5204 57.584 39.8964 57.584C39.5764 57.584 39.2884 57.584 39.0324 57.584C38.7764 57.584 38.4884 57.552 38.1684 57.488C37.3364 60.816 36.5364 63.568 35.7684 65.744C35.0644 67.856 34.2644 69.52 33.3684 70.736C32.4724 71.952 31.4804 72.816 30.3924 73.328C29.3044 73.776 27.9924 74 26.4564 74C24.7284 74 23.3844 73.712 22.4244 73.136C21.4644 72.496 20.8884 71.44 20.6964 69.968C20.5684 68.496 20.8244 66.512 21.4644 64.016C22.1684 61.456 23.3204 58.256 24.9204 54.416C23.4484 54.032 22.0084 53.712 20.6004 53.456C19.1924 53.136 17.7844 52.976 16.3764 52.976C14.9684 52.976 13.8164 53.168 12.9204 53.552C12.0884 53.936 11.3524 54.352 10.7124 54.8C10.1364 55.184 9.56038 55.568 8.98438 55.952C8.47238 56.336 7.83238 56.528 7.06438 56.528C6.04038 56.528 5.04838 56.208 4.08838 55.568C3.19238 54.864 2.52038 53.968 2.07238 52.88C1.68838 51.792 1.59238 50.608 1.78438 49.328C2.04038 47.984 2.77638 46.64 3.99238 45.296C6.16838 42.992 8.21638 40.784 10.1364 38.672C12.1204 36.56 13.8164 34.544 15.2244 32.624C16.6964 30.64 17.8484 28.752 18.6804 26.96C19.5124 25.104 19.9284 23.376 19.9284 21.776C19.9284 19.856 19.2564 18.896 17.9124 18.896C16.8244 18.896 16.0244 19.344 15.5124 20.24C14.1684 19.92 13.1124 19.12 12.3444 17.84C11.6404 16.496 11.2884 14.992 11.2884 13.328C11.2884 11.92 11.5444 10.512 12.0564 9.10399C12.5684 7.63199 13.3364 6.32 14.3604 5.168C15.4484 3.952 16.7924 2.96 18.3924 2.192C20.0564 1.424 22.0404 1.04 24.3444 1.04C26.3284 1.04 28.0564 1.392 29.5284 2.096C31.0644 2.736 32.3444 3.632 33.3684 4.784C34.3924 5.936 35.1604 7.28 35.6724 8.816C36.1844 10.352 36.4404 11.984 36.4404 13.712C36.4404 16.016 35.9284 18.352 34.9044 20.72C33.9444 23.024 32.6004 25.328 30.8724 27.632C29.1444 29.872 27.0644 32.112 24.6324 34.352C22.2644 36.592 19.6724 38.832 16.8564 41.072C16.3444 41.456 16.1204 41.84 16.1844 42.224C16.2484 42.608 16.6324 42.8 17.3364 42.8C19.1924 42.8 21.2084 42.8 23.3844 42.8C25.6244 42.8 27.8644 42.768 30.1044 42.704C32.9844 36.432 35.4484 31.12 37.4964 26.768C39.6084 22.352 41.4644 18.768 43.0644 16.016C44.6644 13.264 46.0724 11.28 47.2884 10.064C48.5684 8.784 49.8164 8.144 51.0324 8.144C52.1844 8.144 52.7604 8.688 52.7604 9.776C52.7604 10.8 52.3764 12.368 51.6084 14.48C50.8404 16.592 49.7844 19.216 48.4404 22.352C47.0964 25.488 45.6884 29.136 44.2164 33.296C43.7044 34.832 43.2244 36.336 42.7764 37.808C42.3924 39.28 42.0404 40.752 41.7204 42.224C43.3844 42.032 44.7924 41.808 45.9444 41.552C47.0964 41.296 47.9284 40.976 48.4404 40.592Z" fill="url(#paint0_linear_1356_9302)"/>
</g>
<defs>
<filter id="filter0_f_1356_9302" x="0.496094" y="0.0399933" width="53.2656" height="74.96" filterUnits="userSpaceOnUse" color-interpolation-filters="sRGB">
<feFlood flood-opacity="0" result="BackgroundImageFix"/>
<feBlend mode="normal" in="SourceGraphic" in2="BackgroundImageFix" result="shape"/>
<feGaussianBlur stdDeviation="0.5" result="effect1_foregroundBlur_1356_9302"/>
</filter>
<linearGradient id="paint0_linear_1356_9302" x1="23" y1="-14" x2="23" y2="125" gradientUnits="userSpaceOnUse">
<stop stop-color="#6460BE"/>
<stop offset="0.490385" stop-color="#6460BE"/>
<stop offset="0.682692" stop-color="white"/>
<stop offset="1" stop-color="white"/>
</linearGradient>
</defs>
</svg>
