<svg width="40" height="74" viewBox="0 0 40 74" fill="none" xmlns="http://www.w3.org/2000/svg">
<g filter="url(#filter0_f_1282_11223)">
<path d="M9.89938 73C4.97138 73 2.25138 70.856 1.73938 66.568C1.29138 62.216 3.37138 55.592 7.97938 46.696C9.70738 43.368 11.2434 40.296 12.5874 37.48C13.9954 34.664 15.1474 31.944 16.0434 29.32C16.4914 27.976 16.6514 26.984 16.5234 26.344C16.3954 25.704 16.1074 25.256 15.6594 25C15.2754 24.68 14.7634 24.488 14.1234 24.424C13.5474 24.36 13.0034 24.264 12.4914 24.136C11.9794 24.008 11.5954 23.784 11.3394 23.464C11.1474 23.08 11.1794 22.472 11.4354 21.64C11.8834 20.232 12.9714 18.408 14.6994 16.168C16.4914 13.864 18.5394 11.624 20.8434 9.44799C23.1474 7.272 25.5154 5.384 27.9474 3.784C30.4434 2.184 32.6194 1.384 34.4754 1.384C36.1394 1.384 37.1954 2.12 37.6434 3.592C38.0914 5.064 37.5474 7.368 36.0114 10.504C33.1314 16.264 30.8274 21.64 29.0994 26.632C27.4354 31.56 25.9634 36.2 24.6834 40.552C22.9554 46.504 21.7074 51.56 20.9394 55.72C20.1714 59.816 19.4034 63.144 18.6354 65.704C17.8674 68.264 16.8754 70.12 15.6594 71.272C14.4434 72.424 12.5234 73 9.89938 73Z" fill="url(#paint0_linear_1282_11223)"/>
</g>
<defs>
<filter id="filter0_f_1282_11223" x="0.0673828" y="0.384766" width="39.248" height="73.6152" filterUnits="userSpaceOnUse" color-interpolation-filters="sRGB">
<feFlood flood-opacity="0" result="BackgroundImageFix"/>
<feBlend mode="normal" in="SourceGraphic" in2="BackgroundImageFix" result="shape"/>
<feGaussianBlur stdDeviation="0.5" result="effect1_foregroundBlur_1282_11223"/>
</filter>
<linearGradient id="paint0_linear_1282_11223" x1="14" y1="-15" x2="14" y2="124" gradientUnits="userSpaceOnUse">
<stop stop-color="#6460BE"/>
<stop offset="0.490385" stop-color="#6460BE"/>
<stop offset="0.682692" stop-color="white"/>
<stop offset="1" stop-color="white"/>
</linearGradient>
</defs>
</svg>
